<?xml version="1.0" encoding="UTF-8"?>
<!DOCTYPE svg PUBLIC "-//W3C//DTD SVG 1.1//EN" "http://www.w3.org/Graphics/SVG/1.1/DTD/svg11.dtd">
<svg xmlns="http://www.w3.org/2000/svg" version="1.1" width="536px" height="465px"
    style="shape-rendering:geometricPrecision; text-rendering:geometricPrecision; image-rendering:optimizeQuality; fill-rule:evenodd; clip-rule:evenodd"
    xmlns:xlink="http://www.w3.org/1999/xlink">
    <g>
        <path style="opacity:0.815" fill="#212121"
            d="M 69.5,-0.5 C 70.1667,-0.5 70.8333,-0.5 71.5,-0.5C 71.2018,92.8407 71.5351,186.174 72.5,279.5C 71.8333,277.833 71.1667,276.167 70.5,274.5C 69.5124,182.851 69.1791,91.1847 69.5,-0.5 Z" />
    </g>
    <g>
        <path style="opacity:1" fill="#212121"
            d="M 71.5,-0.5 C 98.8333,-0.5 126.167,-0.5 153.5,-0.5C 155.635,1.36895 158.302,2.03562 161.5,1.5C 163.553,1.40206 165.22,2.06873 166.5,3.5C 167.344,5.75934 169.011,6.75934 171.5,6.5C 171.833,6.5 172.167,6.5 172.5,6.5C 173.977,9.93443 176.643,11.9344 180.5,12.5C 182.452,15.1184 184.785,17.4518 187.5,19.5C 188.5,19.8333 189.167,20.5 189.5,21.5C 189.738,23.4044 190.738,24.7377 192.5,25.5C 192.703,27.0443 193.37,28.3777 194.5,29.5C 194.167,30.1667 193.833,30.8333 193.5,31.5C 195.319,32.3199 196.986,33.3199 198.5,34.5C 200.592,37.0884 201.925,40.0884 202.5,43.5C 203.393,48.5166 205.06,53.1832 207.5,57.5C 209.235,63.0095 210.402,68.6762 211,74.5C 211.414,74.9574 211.914,75.2907 212.5,75.5C 247.66,66.7833 282.327,68.1166 316.5,79.5C 317.78,80.9313 319.447,81.5979 321.5,81.5C 333.647,85.2418 344.98,90.5751 355.5,97.5C 356.486,100.76 358.819,102.427 362.5,102.5C 362.833,102.5 363.167,102.5 363.5,102.5C 363.727,104.997 365.06,106.664 367.5,107.5C 365.985,112.392 366.485,113.059 369,109.5C 371.45,110.642 373.95,111.642 376.5,112.5C 377.13,115.705 379.13,117.371 382.5,117.5C 382.525,120.179 383.858,121.512 386.5,121.5C 389.5,123.833 392.167,126.5 394.5,129.5C 395.757,132.427 397.757,134.761 400.5,136.5C 401.5,136.833 402.167,137.5 402.5,138.5C 402.427,140.027 403.094,141.027 404.5,141.5C 405.08,143.749 406.413,145.415 408.5,146.5C 408.738,148.404 409.738,149.738 411.5,150.5C 411.427,152.027 412.094,153.027 413.5,153.5C 413.427,155.027 414.094,156.027 415.5,156.5C 416.338,156.842 416.672,157.508 416.5,158.5C 416.427,160.027 417.094,161.027 418.5,161.5C 420.924,164.008 422.59,167.008 423.5,170.5C 423.739,172.467 423.406,174.301 422.5,176C 425.882,176.722 426.882,178.555 425.5,181.5C 426.035,183.271 426.869,183.604 428,182.5C 428.206,185.623 428.873,188.623 430,191.5C 430.333,190.5 430.667,189.5 431,188.5C 431.2,190.32 432.034,191.653 433.5,192.5C 433.12,194.698 433.787,196.365 435.5,197.5C 435.5,197.833 435.5,198.167 435.5,198.5C 435.41,201.152 436.076,203.485 437.5,205.5C 437.41,208.152 438.076,210.485 439.5,212.5C 448.572,248.653 446.905,284.32 434.5,319.5C 433.25,319.577 432.417,320.244 432,321.5C 431.505,323.473 431.338,325.473 431.5,327.5C 430.618,331.593 428.951,335.26 426.5,338.5C 424.087,339.68 423.087,341.68 423.5,344.5C 422.59,347.992 420.924,350.992 418.5,353.5C 415.122,356.066 412.789,359.399 411.5,363.5C 409.143,363.337 406.81,363.503 404.5,364C 405.448,364.483 406.448,364.649 407.5,364.5C 407.5,366.167 407.5,367.833 407.5,369.5C 407.5,369.833 407.5,370.167 407.5,370.5C 406.85,370.196 406.183,369.863 405.5,369.5C 403.967,371.289 402.967,373.289 402.5,375.5C 397.881,376.127 395.881,378.794 396.5,383.5C 391.463,389.538 385.797,394.871 379.5,399.5C 378.417,399.461 377.417,399.127 376.5,398.5C 375.289,399.274 375.289,400.107 376.5,401C 375.167,401.333 373.833,401.667 372.5,402C 373.416,402.278 374.082,402.778 374.5,403.5C 370.808,403.324 368.808,404.991 368.5,408.5C 365.287,409.06 362.287,410.227 359.5,412C 358.663,413.011 358.33,414.178 358.5,415.5C 357.486,416.674 356.153,417.34 354.5,417.5C 349.948,418.92 345.448,420.586 341,422.5C 339.234,421.767 337.401,421.433 335.5,421.5C 335.785,423.288 335.452,424.955 334.5,426.5C 332.117,425.538 331.117,426.538 331.5,429.5C 324.33,433.336 316.663,436.002 308.5,437.5C 304.294,436.945 300.627,437.945 297.5,440.5C 270.836,447.105 244.17,447.105 217.5,440.5C 215.095,439.232 212.428,438.565 209.5,438.5C 205.784,436.595 201.784,435.261 197.5,434.5C 197.611,433.883 197.944,433.383 198.5,433C 194.246,431.735 189.912,430.902 185.5,430.5C 184.365,428.787 182.698,428.12 180.5,428.5C 180.586,427.504 180.252,426.671 179.5,426C 177.337,425.755 175.67,424.755 174.5,423C 172.527,422.505 170.527,422.338 168.5,422.5C 166.853,419.336 164.186,417.67 160.5,417.5C 157.296,416.617 154.629,414.95 152.5,412.5C 152.027,411.094 151.027,410.427 149.5,410.5C 149.027,409.094 148.027,408.427 146.5,408.5C 145.415,406.413 143.749,405.08 141.5,404.5C 140.415,402.413 138.749,401.08 136.5,400.5C 134.761,397.757 132.427,395.757 129.5,394.5C 125.167,390.833 121.167,386.833 117.5,382.5C 116.864,380.205 115.531,378.539 113.5,377.5C 112.864,375.205 111.531,373.539 109.5,372.5C 109.657,371.127 109.49,369.793 109,368.5C 107.493,367.495 106.327,366.162 105.5,364.5C 104.583,363.873 103.583,363.539 102.5,363.5C 101.662,363.158 101.328,362.492 101.5,361.5C 101.249,359.83 100.582,358.33 99.5,357C 99.8333,356.667 100.167,356.333 100.5,356C 98.9354,354.588 97.2687,353.421 95.5,352.5C 89.1615,342.153 84.1615,331.153 80.5,319.5C 80.5,316.5 80.5,313.5 80.5,310.5C 79.5,310.5 78.5,310.5 77.5,310.5C 75.8984,306.761 74.8984,302.761 74.5,298.5C 74.678,294.878 74.0114,291.544 72.5,288.5C 72.5,288.167 72.5,287.833 72.5,287.5C 72.5,284.833 72.5,282.167 72.5,279.5C 71.5351,186.174 71.2018,92.8407 71.5,-0.5 Z M 289.5,152.5 C 291.214,153.738 293.214,154.405 295.5,154.5C 295.833,154.5 296.167,154.5 296.5,154.5C 297.93,155.537 299.597,156.204 301.5,156.5C 304.603,158.384 307.937,159.718 311.5,160.5C 313.663,162.083 315.996,163.416 318.5,164.5C 319.514,165.674 320.847,166.34 322.5,166.5C 322.973,167.906 323.973,168.573 325.5,168.5C 326.262,170.262 327.596,171.262 329.5,171.5C 330.262,173.262 331.596,174.262 333.5,174.5C 334.911,176.914 336.911,178.581 339.5,179.5C 341.833,182.167 344.167,184.833 346.5,187.5C 347.167,188.833 348.167,189.833 349.5,190.5C 349.833,191.5 350.5,192.167 351.5,192.5C 351.427,194.027 352.094,195.027 353.5,195.5C 355.533,198.523 357.533,201.523 359.5,204.5C 360.596,207.032 361.929,209.365 363.5,211.5C 363.66,213.153 364.326,214.486 365.5,215.5C 365.751,217.17 366.418,218.67 367.5,220C 371.813,220.735 376.147,221.235 380.5,221.5C 384.422,223.121 388.422,224.788 392.5,226.5C 393.262,228.262 394.596,229.262 396.5,229.5C 401.31,234.635 405.31,240.302 408.5,246.5C 408.721,249.067 409.388,251.401 410.5,253.5C 410.848,260.948 410.182,268.281 408.5,275.5C 407.326,276.514 406.66,277.847 406.5,279.5C 405.662,279.842 405.328,280.508 405.5,281.5C 404.094,281.973 403.427,282.973 403.5,284.5C 402.094,284.973 401.427,285.973 401.5,287.5C 398.793,289.843 396.126,292.177 393.5,294.5C 391.973,294.427 390.973,295.094 390.5,296.5C 389.508,296.328 388.842,296.662 388.5,297.5C 385.603,298.129 382.936,299.129 380.5,300.5C 376.84,300.159 373.507,300.825 370.5,302.5C 368.98,304.89 367.98,307.557 367.5,310.5C 364.992,314.182 362.992,318.182 361.5,322.5C 359.75,323.659 358.75,325.326 358.5,327.5C 357.094,327.973 356.427,328.973 356.5,330.5C 354.738,331.262 353.738,332.596 353.5,334.5C 351.413,335.585 350.08,337.251 349.5,339.5C 344.833,343.5 340.5,347.833 336.5,352.5C 334.251,353.08 332.585,354.413 331.5,356.5C 329.596,356.738 328.262,357.738 327.5,359.5C 325.973,359.427 324.973,360.094 324.5,361.5C 323.508,361.328 322.842,361.662 322.5,362.5C 320.973,362.427 319.973,363.094 319.5,364.5C 316.669,365.079 314.336,366.412 312.5,368.5C 309.759,368.707 307.426,369.707 305.5,371.5C 300.607,372.796 295.94,374.462 291.5,376.5C 285.776,377.35 280.109,378.35 274.5,379.5C 265.167,379.5 255.833,379.5 246.5,379.5C 241.344,378.218 236.011,377.218 230.5,376.5C 228.786,375.262 226.786,374.595 224.5,374.5C 223.791,373.596 222.791,373.263 221.5,373.5C 220.22,372.069 218.553,371.402 216.5,371.5C 214.574,369.707 212.241,368.707 209.5,368.5C 206.534,366.012 203.201,364.012 199.5,362.5C 199.158,361.662 198.492,361.328 197.5,361.5C 196.564,360.026 195.23,359.026 193.5,358.5C 192.564,357.026 191.23,356.026 189.5,355.5C 189.027,354.094 188.027,353.427 186.5,353.5C 185.5,351.833 184.167,350.5 182.5,349.5C 180.5,346.833 178.167,344.5 175.5,342.5C 174.5,340.833 173.167,339.5 171.5,338.5C 171.262,336.596 170.262,335.262 168.5,334.5C 168.262,332.596 167.262,331.262 165.5,330.5C 165.573,328.973 164.906,327.973 163.5,327.5C 163.672,326.508 163.338,325.842 162.5,325.5C 162.573,323.973 161.906,322.973 160.5,322.5C 159.674,319.515 158.341,316.849 156.5,314.5C 155.403,311.314 154.07,308.314 152.5,305.5C 152.737,304.209 152.404,303.209 151.5,302.5C 148.493,300.825 145.16,300.159 141.5,300.5C 139.786,299.262 137.786,298.595 135.5,298.5C 134.486,297.326 133.153,296.66 131.5,296.5C 131.027,295.094 130.027,294.427 128.5,294.5C 128.167,293.5 127.5,292.833 126.5,292.5C 124.5,290.833 122.5,289.167 120.5,287.5C 120.262,285.596 119.262,284.262 117.5,283.5C 116.439,280.378 115.105,277.378 113.5,274.5C 113.125,272.302 112.458,270.302 111.5,268.5C 110.43,238.734 124.763,222.567 154.5,220C 155.252,219.329 155.586,218.496 155.5,217.5C 156.931,216.22 157.598,214.553 157.5,212.5C 158.906,212.027 159.573,211.027 159.5,209.5C 167.646,196.015 177.646,184.015 189.5,173.5C 192.523,171.467 195.523,169.467 198.5,167.5C 200.23,166.974 201.564,165.974 202.5,164.5C 206.151,163.341 209.485,161.674 212.5,159.5C 215.241,159.293 217.574,158.293 219.5,156.5C 225.325,154.999 230.992,153.332 236.5,151.5C 254.224,148.714 271.891,149.047 289.5,152.5 Z" />
    </g>
    <g>
        <path style="opacity:0.098" fill="#212121"
            d="M 153.5,-0.5 C 153.833,-0.5 154.167,-0.5 154.5,-0.5C 156.833,0.166667 159.167,0.833333 161.5,1.5C 158.302,2.03562 155.635,1.36895 153.5,-0.5 Z" />
    </g>
    <g>
        <path style="opacity:0.933" fill="#212121"
            d="M 166.5,3.5 C 168.674,3.74973 170.341,4.74973 171.5,6.5C 169.011,6.75934 167.344,5.75934 166.5,3.5 Z" />
    </g>
    <g>
        <path style="opacity:0.98" fill="#212121"
            d="M 172.5,6.5 C 175.563,8.02516 178.23,10.0252 180.5,12.5C 176.643,11.9344 173.977,9.93443 172.5,6.5 Z" />
    </g>
    <g>
        <path style="opacity:0.243" fill="#212121"
            d="M 180.5,12.5 C 183.855,13.8552 186.189,16.1886 187.5,19.5C 184.785,17.4518 182.452,15.1184 180.5,12.5 Z" />
    </g>
    <g>
        <path style="opacity:0.486" fill="#212121"
            d="M 189.5,21.5 C 191.262,22.2623 192.262,23.5956 192.5,25.5C 190.738,24.7377 189.738,23.4044 189.5,21.5 Z" />
    </g>
    <g>
        <path style="opacity:1" fill="#212121"
            d="M 192.5,25.5 C 195.241,27.9754 197.241,30.9754 198.5,34.5C 196.986,33.3199 195.319,32.3199 193.5,31.5C 193.833,30.8333 194.167,30.1667 194.5,29.5C 193.37,28.3777 192.703,27.0443 192.5,25.5 Z" />
    </g>
    <g>
        <path style="opacity:0.729" fill="#212121"
            d="M 202.5,43.5 C 204.935,47.7994 206.602,52.466 207.5,57.5C 205.06,53.1832 203.393,48.5166 202.5,43.5 Z" />
    </g>
    <g>
        <path style="opacity:0.212" fill="#212121"
            d="M 316.5,79.5 C 318.553,79.4021 320.22,80.0687 321.5,81.5C 319.447,81.5979 317.78,80.9313 316.5,79.5 Z" />
    </g>
    <g>
        <path style="opacity:0.894" fill="#212121"
            d="M 355.5,97.5 C 358.135,98.8109 360.469,100.478 362.5,102.5C 358.819,102.427 356.486,100.76 355.5,97.5 Z" />
    </g>
    <g>
        <path style="opacity:0.998" fill="#212121"
            d="M 363.5,102.5 C 368.052,105.603 372.386,108.936 376.5,112.5C 373.95,111.642 371.45,110.642 369,109.5C 366.485,113.059 365.985,112.392 367.5,107.5C 365.06,106.664 363.727,104.997 363.5,102.5 Z" />
    </g>
    <g>
        <path style="opacity:0.827" fill="#212121"
            d="M 376.5,112.5 C 378.54,114.177 380.54,115.844 382.5,117.5C 379.13,117.371 377.13,115.705 376.5,112.5 Z" />
    </g>
    <g>
        <path style="opacity:0.902" fill="#212121"
            d="M 382.5,117.5 C 384.167,118.5 385.5,119.833 386.5,121.5C 383.858,121.512 382.525,120.179 382.5,117.5 Z" />
    </g>
    <g>
        <path style="opacity:0.549" fill="#212121"
            d="M 394.5,129.5 C 397.243,131.239 399.243,133.573 400.5,136.5C 397.757,134.761 395.757,132.427 394.5,129.5 Z" />
    </g>
    <g>
        <path style="opacity:0.365" fill="#212121"
            d="M 402.5,138.5 C 403.906,138.973 404.573,139.973 404.5,141.5C 403.094,141.027 402.427,140.027 402.5,138.5 Z" />
    </g>
    <g>
        <path style="opacity:0.667" fill="#212121"
            d="M 404.5,141.5 C 406.587,142.585 407.92,144.251 408.5,146.5C 406.413,145.415 405.08,143.749 404.5,141.5 Z" />
    </g>
    <g>
        <path style="opacity:0.49" fill="#212121"
            d="M 408.5,146.5 C 410.262,147.262 411.262,148.596 411.5,150.5C 409.738,149.738 408.738,148.404 408.5,146.5 Z" />
    </g>
    <g>
        <path style="opacity:0.824" fill="#212121"
            d="M 236.5,151.5 C 230.992,153.332 225.325,154.999 219.5,156.5C 223.188,153.909 227.354,151.909 232,150.5C 233.44,151.148 234.94,151.481 236.5,151.5 Z" />
    </g>
    <g>
        <path style="opacity:0.471" fill="#212121"
            d="M 289.5,152.5 C 291.898,152.259 293.898,152.926 295.5,154.5C 293.214,154.405 291.214,153.738 289.5,152.5 Z" />
    </g>
    <g>
        <path style="opacity:0.18" fill="#212121"
            d="M 411.5,150.5 C 412.906,150.973 413.573,151.973 413.5,153.5C 412.094,153.027 411.427,152.027 411.5,150.5 Z" />
    </g>
    <g>
        <path style="opacity:0.573" fill="#212121"
            d="M 296.5,154.5 C 298.698,154.12 300.365,154.787 301.5,156.5C 299.597,156.204 297.93,155.537 296.5,154.5 Z" />
    </g>
    <g>
        <path style="opacity:0.192" fill="#212121"
            d="M 413.5,153.5 C 414.906,153.973 415.573,154.973 415.5,156.5C 414.094,156.027 413.427,155.027 413.5,153.5 Z" />
    </g>
    <g>
        <path style="opacity:0.993" fill="#212121"
            d="M 212.5,159.5 C 209.485,161.674 206.151,163.341 202.5,164.5C 201.835,161.112 202.835,160.112 205.5,161.5C 207.373,161.518 207.706,161.018 206.5,160C 208.473,159.505 210.473,159.338 212.5,159.5 Z" />
    </g>
    <g>
        <path style="opacity:0.867" fill="#212121"
            d="M 311.5,160.5 C 314.89,160.115 317.223,161.448 318.5,164.5C 315.996,163.416 313.663,162.083 311.5,160.5 Z" />
    </g>
    <g>
        <path style="opacity:0.263" fill="#212121"
            d="M 416.5,158.5 C 417.906,158.973 418.573,159.973 418.5,161.5C 417.094,161.027 416.427,160.027 416.5,158.5 Z" />
    </g>
    <g>
        <path style="opacity:0.286" fill="#212121"
            d="M 322.5,166.5 C 324.027,166.427 325.027,167.094 325.5,168.5C 323.973,168.573 322.973,167.906 322.5,166.5 Z" />
    </g>
    <g>
        <path style="opacity:0.737" fill="#212121"
            d="M 198.5,167.5 C 195.523,169.467 192.523,171.467 189.5,173.5C 189.5,172.5 189.5,171.5 189.5,170.5C 191.973,170.264 193.64,168.931 194.5,166.5C 195.736,167.246 197.07,167.579 198.5,167.5 Z" />
    </g>
    <g>
        <path style="opacity:0.463" fill="#212121"
            d="M 325.5,168.5 C 327.404,168.738 328.738,169.738 329.5,171.5C 327.596,171.262 326.262,170.262 325.5,168.5 Z" />
    </g>
    <g>
        <path style="opacity:0.416" fill="#212121"
            d="M 329.5,171.5 C 331.404,171.738 332.738,172.738 333.5,174.5C 331.596,174.262 330.262,173.262 329.5,171.5 Z" />
    </g>
    <g>
        <path style="opacity:0.537" fill="#212121"
            d="M 333.5,174.5 C 336.089,175.419 338.089,177.086 339.5,179.5C 336.911,178.581 334.911,176.914 333.5,174.5 Z" />
    </g>
    <g>
        <path style="opacity:0.951" fill="#212121"
            d="M 423.5,170.5 C 427.892,177.288 431.225,184.622 433.5,192.5C 432.034,191.653 431.2,190.32 431,188.5C 430.667,189.5 430.333,190.5 430,191.5C 428.873,188.623 428.206,185.623 428,182.5C 426.869,183.604 426.035,183.271 425.5,181.5C 426.882,178.555 425.882,176.722 422.5,176C 423.406,174.301 423.739,172.467 423.5,170.5 Z" />
    </g>
    <g>
        <path style="opacity:0.29" fill="#212121"
            d="M 346.5,187.5 C 348.5,187.5 349.5,188.5 349.5,190.5C 348.167,189.833 347.167,188.833 346.5,187.5 Z" />
    </g>
    <g>
        <path style="opacity:0.004" fill="#212121"
            d="M 351.5,192.5 C 352.906,192.973 353.573,193.973 353.5,195.5C 352.094,195.027 351.427,194.027 351.5,192.5 Z" />
    </g>
    <g>
        <path style="opacity:0.573" fill="#212121"
            d="M 433.5,192.5 C 434.537,193.93 435.204,195.597 435.5,197.5C 433.787,196.365 433.12,194.698 433.5,192.5 Z" />
    </g>
    <g>
        <path style="opacity:0.533" fill="#212121"
            d="M 435.5,198.5 C 436.924,200.515 437.59,202.848 437.5,205.5C 436.076,203.485 435.41,201.152 435.5,198.5 Z" />
    </g>
    <g>
        <path style="opacity:0.557" fill="#212121"
            d="M 359.5,204.5 C 362.083,205.985 363.416,208.318 363.5,211.5C 361.929,209.365 360.596,207.032 359.5,204.5 Z" />
    </g>
    <g>
        <path style="opacity:0.114" fill="#212121"
            d="M 159.5,209.5 C 159.573,211.027 158.906,212.027 157.5,212.5C 157.427,210.973 158.094,209.973 159.5,209.5 Z" />
    </g>
    <g>
        <path style="opacity:0.42" fill="#212121"
            d="M 437.5,205.5 C 438.924,207.515 439.59,209.848 439.5,212.5C 438.076,210.485 437.41,208.152 437.5,205.5 Z" />
    </g>
    <g>
        <path style="opacity:0.133" fill="#212121"
            d="M 363.5,211.5 C 365.104,212.287 365.771,213.62 365.5,215.5C 364.326,214.486 363.66,213.153 363.5,211.5 Z" />
    </g>
    <g>
        <path style="opacity:0.125" fill="#212121"
            d="M 157.5,212.5 C 157.598,214.553 156.931,216.22 155.5,217.5C 155.402,215.447 156.069,213.78 157.5,212.5 Z" />
    </g>
    <g>
        <path style="opacity:1" fill="#212121"
            d="M 380.5,221.5 C 384.226,221.177 387.893,221.511 391.5,222.5C 392.246,223.736 392.579,225.07 392.5,226.5C 388.422,224.788 384.422,223.121 380.5,221.5 Z" />
    </g>
    <g>
        <path style="opacity:0.298" fill="#212121"
            d="M 392.5,226.5 C 394.404,226.738 395.738,227.738 396.5,229.5C 394.596,229.262 393.262,228.262 392.5,226.5 Z" />
    </g>
    <g>
        <path style="opacity:0.098" fill="#212121"
            d="M 220.5,232.5 C 222.38,232.229 223.713,232.896 224.5,234.5C 222.847,234.34 221.514,233.674 220.5,232.5 Z" />
    </g>
    <g>
        <path style="opacity:0.384" fill="#212121"
            d="M 302.5,232.5 C 302.735,231.903 303.235,231.57 304,231.5C 306.03,231.954 307.863,232.62 309.5,233.5C 307.097,233.552 304.764,233.219 302.5,232.5 Z" />
    </g>
    <g>
        <path style="opacity:0.38" fill="#212121"
            d="M 213.5,232.5 C 213.027,233.906 212.027,234.573 210.5,234.5C 210.973,233.094 211.973,232.427 213.5,232.5 Z" />
    </g>
    <g>
        <path style="opacity:1" fill="#212121"
            d="M 220.5,232.5 C 221.514,233.674 222.847,234.34 224.5,234.5C 225.5,236.167 226.833,237.5 228.5,238.5C 228.427,240.027 229.094,241.027 230.5,241.5C 232.155,247.346 232.822,253.346 232.5,259.5C 229.857,270.532 223.191,274.866 212.5,272.5C 212.027,271.094 211.027,270.427 209.5,270.5C 208.833,269.167 207.833,268.167 206.5,267.5C 204.75,266.341 203.75,264.674 203.5,262.5C 202.746,257.537 202.413,252.537 202.5,247.5C 204.074,245.898 204.741,243.898 204.5,241.5C 205.906,241.027 206.573,240.027 206.5,238.5C 208.167,237.5 209.5,236.167 210.5,234.5C 212.027,234.573 213.027,233.906 213.5,232.5C 215.874,231.314 218.208,231.314 220.5,232.5 Z" />
    </g>
    <g>
        <path style="opacity:0.024" fill="#212121"
            d="M 224.5,234.5 C 226.833,234.833 228.167,236.167 228.5,238.5C 226.833,237.5 225.5,236.167 224.5,234.5 Z" />
    </g>
    <g>
        <path style="opacity:0.404" fill="#212121"
            d="M 298.5,233.5 C 298.027,234.906 297.027,235.573 295.5,235.5C 295.973,234.094 296.973,233.427 298.5,233.5 Z" />
    </g>
    <g>
        <path style="opacity:0.322" fill="#212121"
            d="M 210.5,234.5 C 209.5,236.167 208.167,237.5 206.5,238.5C 206.833,236.167 208.167,234.833 210.5,234.5 Z" />
    </g>
    <g>
        <path style="opacity:1" fill="#212121"
            d="M 302.5,232.5 C 304.764,233.219 307.097,233.552 309.5,233.5C 312.833,234.833 315.167,237.167 316.5,240.5C 316.222,243.29 316.889,245.79 318.5,248C 318.465,253.732 317.799,259.565 316.5,265.5C 312.025,273.511 305.692,275.511 297.5,271.5C 297.027,270.094 296.027,269.427 294.5,269.5C 294.461,268.417 294.127,267.417 293.5,266.5C 294.025,265.808 294.692,265.308 295.5,265C 293.868,263.18 291.868,262.014 289.5,261.5C 289.109,254.349 289.775,247.349 291.5,240.5C 292.906,240.027 293.573,239.027 293.5,237.5C 293.833,236.5 294.5,235.833 295.5,235.5C 297.027,235.573 298.027,234.906 298.5,233.5C 299.568,232.566 300.901,232.232 302.5,232.5 Z" />
    </g>
    <g>
        <path style="opacity:0.231" fill="#212121"
            d="M 293.5,237.5 C 293.573,239.027 292.906,240.027 291.5,240.5C 291.427,238.973 292.094,237.973 293.5,237.5 Z" />
    </g>
    <g>
        <path style="opacity:0.314" fill="#212121"
            d="M 206.5,238.5 C 206.573,240.027 205.906,241.027 204.5,241.5C 204.427,239.973 205.094,238.973 206.5,238.5 Z" />
    </g>
    <g>
        <path style="opacity:0.349" fill="#212121"
            d="M 228.5,238.5 C 229.906,238.973 230.573,239.973 230.5,241.5C 229.094,241.027 228.427,240.027 228.5,238.5 Z" />
    </g>
    <g>
        <path style="opacity:0.486" fill="#212121"
            d="M 204.5,241.5 C 204.741,243.898 204.074,245.898 202.5,247.5C 202.259,245.102 202.926,243.102 204.5,241.5 Z" />
    </g>
    <g>
        <path style="opacity:0.482" fill="#212121"
            d="M 230.5,241.5 C 231.793,242.842 232.626,244.509 233,246.5C 233.814,251.02 233.647,255.354 232.5,259.5C 232.822,253.346 232.155,247.346 230.5,241.5 Z" />
    </g>
    <g>
        <path style="opacity:0.349" fill="#212121"
            d="M 408.5,246.5 C 410.163,248.438 410.829,250.772 410.5,253.5C 409.388,251.401 408.721,249.067 408.5,246.5 Z" />
    </g>
    <g>
        <path style="opacity:0.557" fill="#212121"
            d="M 291.5,240.5 C 289.775,247.349 289.109,254.349 289.5,261.5C 286.754,254.211 287.421,247.211 291.5,240.5 Z" />
    </g>
    <g>
        <path style="opacity:0.847" fill="#212121"
            d="M 316.5,240.5 C 321.829,248.815 321.829,257.149 316.5,265.5C 317.799,259.565 318.465,253.732 318.5,248C 316.889,245.79 316.222,243.29 316.5,240.5 Z" />
    </g>
    <g>
        <path style="opacity:0.345" fill="#212121"
            d="M 202.5,247.5 C 202.413,252.537 202.746,257.537 203.5,262.5C 202.009,259.814 201.343,256.814 201.5,253.5C 201.505,251.304 201.838,249.304 202.5,247.5 Z" />
    </g>
    <g>
        <path style="opacity:1" fill="#212121"
            d="M 289.5,261.5 C 291.868,262.014 293.868,263.18 295.5,265C 294.692,265.308 294.025,265.808 293.5,266.5C 294.127,267.417 294.461,268.417 294.5,269.5C 292.05,267.371 290.383,264.704 289.5,261.5 Z" />
    </g>
    <g>
        <path style="opacity:0.008" fill="#212121"
            d="M 206.5,267.5 C 207.833,268.167 208.833,269.167 209.5,270.5C 207.5,270.5 206.5,269.5 206.5,267.5 Z" />
    </g>
    <g>
        <path style="opacity:0.286" fill="#212121"
            d="M 294.5,269.5 C 296.027,269.427 297.027,270.094 297.5,271.5C 295.973,271.573 294.973,270.906 294.5,269.5 Z" />
    </g>
    <g>
        <path style="opacity:0.247" fill="#212121"
            d="M 209.5,270.5 C 211.027,270.427 212.027,271.094 212.5,272.5C 210.973,272.573 209.973,271.906 209.5,270.5 Z" />
    </g>
    <g>
        <path style="opacity:0.447" fill="#212121"
            d="M 111.5,268.5 C 112.458,270.302 113.125,272.302 113.5,274.5C 111.72,273.01 111.054,271.01 111.5,268.5 Z" />
    </g>
    <g>
        <path style="opacity:0.776" fill="#212121"
            d="M 408.5,275.5 C 408.843,277.483 408.176,278.817 406.5,279.5C 406.66,277.847 407.326,276.514 408.5,275.5 Z" />
    </g>
    <g>
        <path style="opacity:0.2" fill="#212121"
            d="M 70.5,274.5 C 71.1667,276.167 71.8333,277.833 72.5,279.5C 72.5,282.167 72.5,284.833 72.5,287.5C 71.2911,283.382 70.6245,279.049 70.5,274.5 Z" />
    </g>
    <g>
        <path style="opacity:0.173" fill="#212121"
            d="M 405.5,281.5 C 405.573,283.027 404.906,284.027 403.5,284.5C 403.427,282.973 404.094,281.973 405.5,281.5 Z" />
    </g>
    <g>
        <path style="opacity:0.31" fill="#212121"
            d="M 117.5,283.5 C 119.262,284.262 120.262,285.596 120.5,287.5C 118.738,286.738 117.738,285.404 117.5,283.5 Z" />
    </g>
    <g>
        <path style="opacity:0.396" fill="#212121"
            d="M 403.5,284.5 C 403.573,286.027 402.906,287.027 401.5,287.5C 401.427,285.973 402.094,284.973 403.5,284.5 Z" />
    </g>
    <g>
        <path style="opacity:0.953" fill="#212121"
            d="M 401.5,287.5 C 400.219,291.359 397.552,293.693 393.5,294.5C 396.126,292.177 398.793,289.843 401.5,287.5 Z" />
    </g>
    <g>
        <path style="opacity:0.314" fill="#212121"
            d="M 126.5,292.5 C 127.5,292.833 128.167,293.5 128.5,294.5C 127.167,294.5 126.5,293.833 126.5,292.5 Z" />
    </g>
    <g>
        <path style="opacity:0.125" fill="#212121"
            d="M 72.5,288.5 C 74.0114,291.544 74.678,294.878 74.5,298.5C 73.2154,295.411 72.5488,292.078 72.5,288.5 Z" />
    </g>
    <g>
        <path style="opacity:0.09" fill="#212121"
            d="M 128.5,294.5 C 130.027,294.427 131.027,295.094 131.5,296.5C 129.973,296.573 128.973,295.906 128.5,294.5 Z" />
    </g>
    <g>
        <path style="opacity:0.42" fill="#212121"
            d="M 393.5,294.5 C 393.027,295.906 392.027,296.573 390.5,296.5C 390.973,295.094 391.973,294.427 393.5,294.5 Z" />
    </g>
    <g>
        <path style="opacity:0.173" fill="#212121"
            d="M 135.5,298.5 C 137.786,298.595 139.786,299.262 141.5,300.5C 139.102,300.741 137.102,300.074 135.5,298.5 Z" />
    </g>
    <g>
        <path style="opacity:0.447" fill="#212121"
            d="M 388.5,297.5 C 386.383,299.655 383.716,300.655 380.5,300.5C 382.936,299.129 385.603,298.129 388.5,297.5 Z" />
    </g>
    <g>
        <path style="opacity:0.349" fill="#212121"
            d="M 141.5,300.5 C 145.16,300.159 148.493,300.825 151.5,302.5C 147.96,302.247 144.627,301.581 141.5,300.5 Z" />
    </g>
    <g>
        <path style="opacity:0.71" fill="#212121"
            d="M 370.5,302.5 C 370.655,305.716 369.655,308.383 367.5,310.5C 367.98,307.557 368.98,304.89 370.5,302.5 Z" />
    </g>
    <g>
        <path style="opacity:0.957" fill="#212121"
            d="M 77.5,310.5 C 78.5,310.5 79.5,310.5 80.5,310.5C 80.5,313.5 80.5,316.5 80.5,319.5C 78.9281,316.785 77.9281,313.785 77.5,310.5 Z" />
    </g>
    <g>
        <path style="opacity:0.853" fill="#212121"
            d="M 152.5,305.5 C 154.07,308.314 155.403,311.314 156.5,314.5C 155.603,313.402 154.77,313.402 154,314.5C 153.304,311.522 152.804,308.522 152.5,305.5 Z" />
    </g>
    <g>
        <path style="opacity:0.035" fill="#212121"
            d="M 295.5,315.5 C 296.302,314.115 296.969,314.282 297.5,316C 297.43,316.765 297.097,317.265 296.5,317.5C 296.672,316.508 296.338,315.842 295.5,315.5 Z" />
    </g>
    <g>
        <path style="opacity:0.431" fill="#212121"
            d="M 232.5,318.5 C 230.83,318.249 229.33,317.582 228,316.5C 227.517,317.448 227.351,318.448 227.5,319.5C 226.069,318.22 225.402,316.553 225.5,314.5C 228.326,314.998 230.66,316.331 232.5,318.5 Z" />
    </g>
    <g>
        <path style="opacity:1" fill="#212121"
            d="M 367.5,310.5 C 367.393,315.177 366.226,319.51 364,323.5C 363.658,321.381 362.825,321.047 361.5,322.5C 362.992,318.182 364.992,314.182 367.5,310.5 Z" />
    </g>
    <g>
        <path style="opacity:0.69" fill="#212121"
            d="M 227.5,319.5 C 229.446,320.035 230.446,321.368 230.5,323.5C 229.026,322.564 228.026,321.23 227.5,319.5 Z" />
    </g>
    <g>
        <path style="opacity:0.565" fill="#212121"
            d="M 295.5,315.5 C 293.761,318.243 291.427,320.243 288.5,321.5C 290.239,318.757 292.573,316.757 295.5,315.5 Z" />
    </g>
    <g>
        <path style="opacity:0.784" fill="#212121"
            d="M 434.5,319.5 C 433.871,322.397 432.871,325.064 431.5,327.5C 431.338,325.473 431.505,323.473 432,321.5C 432.417,320.244 433.25,319.577 434.5,319.5 Z" />
    </g>
    <g>
        <path style="opacity:0.153" fill="#212121"
            d="M 160.5,322.5 C 161.906,322.973 162.573,323.973 162.5,325.5C 161.094,325.027 160.427,324.027 160.5,322.5 Z" />
    </g>
    <g>
        <path style="opacity:0.999" fill="#212121"
            d="M 295.5,315.5 C 296.338,315.842 296.672,316.508 296.5,317.5C 295.786,321.933 293.786,325.6 290.5,328.5C 289.094,328.973 288.427,329.973 288.5,331.5C 287.833,332.833 286.833,333.833 285.5,334.5C 283.973,334.427 282.973,335.094 282.5,336.5C 282.027,337.906 281.027,338.573 279.5,338.5C 276.68,338.087 274.68,339.087 273.5,341.5C 263.492,344.662 254.159,343.328 245.5,337.5C 245.027,336.094 244.027,335.427 242.5,335.5C 241.415,333.413 239.749,332.08 237.5,331.5C 234.45,329.451 232.117,326.784 230.5,323.5C 230.446,321.368 229.446,320.035 227.5,319.5C 227.351,318.448 227.517,317.448 228,316.5C 229.33,317.582 230.83,318.249 232.5,318.5C 232.973,319.906 233.973,320.573 235.5,320.5C 236.492,320.328 237.158,320.662 237.5,321.5C 240.336,324.756 244.003,326.756 248.5,327.5C 249.635,329.213 251.302,329.88 253.5,329.5C 255.438,331.163 257.772,331.829 260.5,331.5C 265.807,332.676 271.141,332.176 276.5,330C 277.056,329.617 277.389,329.117 277.5,328.5C 278.514,327.326 279.847,326.66 281.5,326.5C 283.027,326.573 284.027,325.906 284.5,324.5C 286.404,324.262 287.738,323.262 288.5,321.5C 291.427,320.243 293.761,318.243 295.5,315.5 Z" />
    </g>
    <g>
        <path style="opacity:0.498" fill="#212121"
            d="M 284.5,324.5 C 284.027,325.906 283.027,326.573 281.5,326.5C 281.973,325.094 282.973,324.427 284.5,324.5 Z" />
    </g>
    <g>
        <path style="opacity:0.133" fill="#212121"
            d="M 237.5,321.5 C 241.362,323.262 245.028,325.262 248.5,327.5C 244.003,326.756 240.336,324.756 237.5,321.5 Z" />
    </g>
    <g>
        <path style="opacity:0.384" fill="#212121"
            d="M 288.5,321.5 C 287.738,323.262 286.404,324.262 284.5,324.5C 285.262,322.738 286.596,321.738 288.5,321.5 Z" />
    </g>
    <g>
        <path style="opacity:0.082" fill="#212121"
            d="M 232.5,318.5 C 234.027,318.427 235.027,319.094 235.5,320.5C 233.973,320.573 232.973,319.906 232.5,318.5 Z" />
    </g>
    <g>
        <path style="opacity:0.843" fill="#212121"
            d="M 361.5,322.5 C 361.408,324.848 360.408,326.514 358.5,327.5C 358.75,325.326 359.75,323.659 361.5,322.5 Z" />
    </g>
    <g>
        <path style="opacity:0.239" fill="#212121"
            d="M 248.5,327.5 C 250.403,327.796 252.07,328.463 253.5,329.5C 251.302,329.88 249.635,329.213 248.5,327.5 Z" />
    </g>
    <g>
        <path style="opacity:0.235" fill="#212121"
            d="M 163.5,327.5 C 164.906,327.973 165.573,328.973 165.5,330.5C 164.094,330.027 163.427,329.027 163.5,327.5 Z" />
    </g>
    <g>
        <path style="opacity:0.678" fill="#212121"
            d="M 277.5,328.5 C 277.389,329.117 277.056,329.617 276.5,330C 271.141,332.176 265.807,332.676 260.5,331.5C 261.5,331.5 262.5,331.5 263.5,331.5C 268.281,330.926 272.948,329.926 277.5,328.5 Z" />
    </g>
    <g>
        <path style="opacity:0.016" fill="#212121"
            d="M 290.5,328.5 C 290.573,330.027 289.906,331.027 288.5,331.5C 288.427,329.973 289.094,328.973 290.5,328.5 Z" />
    </g>
    <g>
        <path style="opacity:0.329" fill="#212121"
            d="M 358.5,327.5 C 358.573,329.027 357.906,330.027 356.5,330.5C 356.427,328.973 357.094,327.973 358.5,327.5 Z" />
    </g>
    <g>
        <path style="opacity:0.01" fill="#212121"
            d="M 253.5,329.5 C 257.011,329.899 260.344,330.566 263.5,331.5C 262.5,331.5 261.5,331.5 260.5,331.5C 257.772,331.829 255.438,331.163 253.5,329.5 Z" />
    </g>
    <g>
        <path style="opacity:0.51" fill="#212121"
            d="M 237.5,331.5 C 239.749,332.08 241.415,333.413 242.5,335.5C 240.251,334.92 238.585,333.587 237.5,331.5 Z" />
    </g>
    <g>
        <path style="opacity:0.333" fill="#212121"
            d="M 165.5,330.5 C 167.262,331.262 168.262,332.596 168.5,334.5C 166.738,333.738 165.738,332.404 165.5,330.5 Z" />
    </g>
    <g>
        <path style="opacity:0.416" fill="#212121"
            d="M 356.5,330.5 C 356.262,332.404 355.262,333.738 353.5,334.5C 353.738,332.596 354.738,331.262 356.5,330.5 Z" />
    </g>
    <g>
        <path style="opacity:0.482" fill="#212121"
            d="M 168.5,334.5 C 170.262,335.262 171.262,336.596 171.5,338.5C 169.738,337.738 168.738,336.404 168.5,334.5 Z" />
    </g>
    <g>
        <path style="opacity:0.02" fill="#212121"
            d="M 285.5,334.5 C 285.027,335.906 284.027,336.573 282.5,336.5C 282.973,335.094 283.973,334.427 285.5,334.5 Z" />
    </g>
    <g>
        <path style="opacity:0.631" fill="#212121"
            d="M 353.5,334.5 C 352.92,336.749 351.587,338.415 349.5,339.5C 350.08,337.251 351.413,335.585 353.5,334.5 Z" />
    </g>
    <g>
        <path style="opacity:0.153" fill="#212121"
            d="M 242.5,335.5 C 244.027,335.427 245.027,336.094 245.5,337.5C 243.973,337.573 242.973,336.906 242.5,335.5 Z" />
    </g>
    <g>
        <path style="opacity:0.808" fill="#212121"
            d="M 279.5,338.5 C 277.819,340.008 275.819,341.008 273.5,341.5C 274.68,339.087 276.68,338.087 279.5,338.5 Z" />
    </g>
    <g>
        <path style="opacity:0.902" fill="#212121"
            d="M 426.5,338.5 C 426.008,340.819 425.008,342.819 423.5,344.5C 423.087,341.68 424.087,339.68 426.5,338.5 Z" />
    </g>
    <g>
        <path style="opacity:0.506" fill="#212121"
            d="M 175.5,342.5 C 178.167,344.5 180.5,346.833 182.5,349.5C 179.167,348.167 176.833,345.833 175.5,342.5 Z" />
    </g>
    <g>
        <path style="opacity:0.459" fill="#212121"
            d="M 349.5,339.5 C 346.167,344.833 341.833,349.167 336.5,352.5C 340.5,347.833 344.833,343.5 349.5,339.5 Z" />
    </g>
    <g>
        <path style="opacity:0.004" fill="#212121"
            d="M 186.5,353.5 C 188.027,353.427 189.027,354.094 189.5,355.5C 187.973,355.573 186.973,354.906 186.5,353.5 Z" />
    </g>
    <g>
        <path style="opacity:0.839" fill="#212121"
            d="M 95.5,352.5 C 97.2687,353.421 98.9354,354.588 100.5,356C 100.167,356.333 99.8333,356.667 99.5,357C 100.582,358.33 101.249,359.83 101.5,361.5C 99.2651,358.709 97.2651,355.709 95.5,352.5 Z" />
    </g>
    <g>
        <path style="opacity:0.576" fill="#212121"
            d="M 336.5,352.5 C 335.415,354.587 333.749,355.92 331.5,356.5C 332.585,354.413 334.251,353.08 336.5,352.5 Z" />
    </g>
    <g>
        <path style="opacity:0.255" fill="#212121"
            d="M 189.5,355.5 C 191.23,356.026 192.564,357.026 193.5,358.5C 191.368,358.446 190.035,357.446 189.5,355.5 Z" />
    </g>
    <g>
        <path style="opacity:0.373" fill="#212121"
            d="M 331.5,356.5 C 330.738,358.262 329.404,359.262 327.5,359.5C 328.262,357.738 329.596,356.738 331.5,356.5 Z" />
    </g>
    <g>
        <path style="opacity:0.604" fill="#212121"
            d="M 193.5,358.5 C 195.23,359.026 196.564,360.026 197.5,361.5C 195.368,361.446 194.035,360.446 193.5,358.5 Z" />
    </g>
    <g>
        <path style="opacity:0.494" fill="#212121"
            d="M 327.5,359.5 C 327.027,360.906 326.027,361.573 324.5,361.5C 324.973,360.094 325.973,359.427 327.5,359.5 Z" />
    </g>
    <g>
        <path style="opacity:0.651" fill="#212121"
            d="M 199.5,362.5 C 203.201,364.012 206.534,366.012 209.5,368.5C 205.43,367.476 202.096,365.476 199.5,362.5 Z" />
    </g>
    <g>
        <path style="opacity:0.373" fill="#212121"
            d="M 322.5,362.5 C 322.027,363.906 321.027,364.573 319.5,364.5C 319.973,363.094 320.973,362.427 322.5,362.5 Z" />
    </g>
    <g>
        <path style="opacity:1" fill="#212121"
            d="M 418.5,353.5 C 415.818,359.537 412.151,364.871 407.5,369.5C 407.5,367.833 407.5,366.167 407.5,364.5C 406.448,364.649 405.448,364.483 404.5,364C 406.81,363.503 409.143,363.337 411.5,363.5C 412.789,359.399 415.122,356.066 418.5,353.5 Z" />
    </g>
    <g>
        <path style="opacity:0.965" fill="#212121"
            d="M 102.5,363.5 C 103.583,363.539 104.583,363.873 105.5,364.5C 106.327,366.162 107.493,367.495 109,368.5C 109.49,369.793 109.657,371.127 109.5,372.5C 106.815,369.81 104.482,366.81 102.5,363.5 Z" />
    </g>
    <g>
        <path style="opacity:1" fill="#212121"
            d="M 319.5,364.5 C 318.934,366.078 317.934,367.412 316.5,368.5C 315.274,367.637 313.94,367.637 312.5,368.5C 314.336,366.412 316.669,365.079 319.5,364.5 Z" />
    </g>
    <g>
        <path style="opacity:0.125" fill="#212121"
            d="M 209.5,368.5 C 212.241,368.707 214.574,369.707 216.5,371.5C 213.759,371.293 211.426,370.293 209.5,368.5 Z" />
    </g>
    <g>
        <path style="opacity:0.753" fill="#212121"
            d="M 109.5,372.5 C 111.531,373.539 112.864,375.205 113.5,377.5C 111.457,376.421 110.124,374.754 109.5,372.5 Z" />
    </g>
    <g>
        <path style="opacity:0.161" fill="#212121"
            d="M 216.5,371.5 C 218.553,371.402 220.22,372.069 221.5,373.5C 219.447,373.598 217.78,372.931 216.5,371.5 Z" />
    </g>
    <g>
        <path style="opacity:0.58" fill="#212121"
            d="M 305.5,371.5 C 301.37,374.324 296.703,375.991 291.5,376.5C 295.94,374.462 300.607,372.796 305.5,371.5 Z" />
    </g>
    <g>
        <path style="opacity:0.259" fill="#212121"
            d="M 224.5,374.5 C 226.786,374.595 228.786,375.262 230.5,376.5C 228.102,376.741 226.102,376.074 224.5,374.5 Z" />
    </g>
    <g>
        <path style="opacity:0.975" fill="#212121"
            d="M 407.5,370.5 C 404.179,375.152 400.513,379.485 396.5,383.5C 395.881,378.794 397.881,376.127 402.5,375.5C 402.967,373.289 403.967,371.289 405.5,369.5C 406.183,369.863 406.85,370.196 407.5,370.5 Z" />
    </g>
    <g>
        <path style="opacity:0.314" fill="#212121"
            d="M 113.5,377.5 C 115.531,378.539 116.864,380.205 117.5,382.5C 115.457,381.421 114.124,379.754 113.5,377.5 Z" />
    </g>
    <g>
        <path style="opacity:0.511" fill="#212121"
            d="M 246.5,379.5 C 255.833,379.5 265.167,379.5 274.5,379.5C 265.161,382.128 255.827,382.128 246.5,379.5 Z" />
    </g>
    <g>
        <path style="opacity:0.565" fill="#212121"
            d="M 129.5,394.5 C 132.427,395.757 134.761,397.757 136.5,400.5C 133.573,399.243 131.239,397.243 129.5,394.5 Z" />
    </g>
    <g>
        <path style="opacity:1" fill="#212121"
            d="M 379.5,399.5 C 378.415,401.587 376.749,402.92 374.5,403.5C 374.082,402.778 373.416,402.278 372.5,402C 373.833,401.667 375.167,401.333 376.5,401C 375.289,400.107 375.289,399.274 376.5,398.5C 377.417,399.127 378.417,399.461 379.5,399.5 Z" />
    </g>
    <g>
        <path style="opacity:0.557" fill="#212121"
            d="M 136.5,400.5 C 138.749,401.08 140.415,402.413 141.5,404.5C 139.251,403.92 137.585,402.587 136.5,400.5 Z" />
    </g>
    <g>
        <path style="opacity:0.627" fill="#212121"
            d="M 141.5,404.5 C 143.749,405.08 145.415,406.413 146.5,408.5C 144.251,407.92 142.585,406.587 141.5,404.5 Z" />
    </g>
    <g>
        <path style="opacity:0.722" fill="#212121"
            d="M 374.5,403.5 C 372.909,405.633 370.909,407.299 368.5,408.5C 368.808,404.991 370.808,403.324 374.5,403.5 Z" />
    </g>
    <g>
        <path style="opacity:0.176" fill="#212121"
            d="M 146.5,408.5 C 148.027,408.427 149.027,409.094 149.5,410.5C 147.973,410.573 146.973,409.906 146.5,408.5 Z" />
    </g>
    <g>
        <path style="opacity:0.239" fill="#212121"
            d="M 149.5,410.5 C 151.027,410.427 152.027,411.094 152.5,412.5C 150.973,412.573 149.973,411.906 149.5,410.5 Z" />
    </g>
    <g>
        <path style="opacity:0.729" fill="#212121"
            d="M 368.5,408.5 C 365.554,411.313 362.221,413.646 358.5,415.5C 358.33,414.178 358.663,413.011 359.5,412C 362.287,410.227 365.287,409.06 368.5,408.5 Z" />
    </g>
    <g>
        <path style="opacity:0.855" fill="#212121"
            d="M 160.5,417.5 C 164.186,417.67 166.853,419.336 168.5,422.5C 165.489,421.331 162.822,419.664 160.5,417.5 Z" />
    </g>
    <g>
        <path style="opacity:1" fill="#212121"
            d="M 354.5,417.5 C 347.597,422.786 339.931,426.786 331.5,429.5C 331.117,426.538 332.117,425.538 334.5,426.5C 335.452,424.955 335.785,423.288 335.5,421.5C 337.401,421.433 339.234,421.767 341,422.5C 345.448,420.586 349.948,418.92 354.5,417.5 Z" />
    </g>
    <g>
        <path style="opacity:0.71" fill="#212121"
            d="M 168.5,422.5 C 170.527,422.338 172.527,422.505 174.5,423C 175.67,424.755 177.337,425.755 179.5,426C 180.252,426.671 180.586,427.504 180.5,428.5C 176.182,427.008 172.182,425.008 168.5,422.5 Z" />
    </g>
    <g>
        <path style="opacity:0.635" fill="#212121"
            d="M 180.5,428.5 C 182.698,428.12 184.365,428.787 185.5,430.5C 183.597,430.204 181.93,429.537 180.5,428.5 Z" />
    </g>
    <g>
        <path style="opacity:0.911" fill="#212121"
            d="M 185.5,430.5 C 189.912,430.902 194.246,431.735 198.5,433C 197.944,433.383 197.611,433.883 197.5,434.5C 197.167,434.5 196.833,434.5 196.5,434.5C 192.463,433.935 188.797,432.601 185.5,430.5 Z" />
    </g>
    <g>
        <path style="opacity:0.631" fill="#212121"
            d="M 196.5,434.5 C 196.833,434.5 197.167,434.5 197.5,434.5C 201.784,435.261 205.784,436.595 209.5,438.5C 204.835,437.943 200.502,436.61 196.5,434.5 Z" />
    </g>
    <g>
        <path style="opacity:0.804" fill="#212121"
            d="M 308.5,437.5 C 305.146,439.258 301.479,440.258 297.5,440.5C 300.627,437.945 304.294,436.945 308.5,437.5 Z" />
    </g>
    <g>
        <path style="opacity:0.424" fill="#212121"
            d="M 209.5,438.5 C 212.428,438.565 215.095,439.232 217.5,440.5C 214.505,440.706 211.838,440.04 209.5,438.5 Z" />
    </g>
</svg>