<?xml version="1.0" encoding="UTF-8"?>
<!DOCTYPE svg PUBLIC "-//W3C//DTD SVG 1.1//EN" "http://www.w3.org/Graphics/SVG/1.1/DTD/svg11.dtd">
<svg xmlns="http://www.w3.org/2000/svg" version="1.1" width="805px" height="125px"
    style="shape-rendering:geometricPrecision; text-rendering:geometricPrecision; image-rendering:optimizeQuality; fill-rule:evenodd; clip-rule:evenodd"
    xmlns:xlink="http://www.w3.org/1999/xlink">
    <g>
        <path style="" fill="#212121"
            d="M 110.5,23.5 C 109.417,23.4606 108.417,23.1272 107.5,22.5C 106.482,23.1925 105.482,23.8592 104.5,24.5C 104.76,22.405 105.926,21.0717 108,20.5C 109.749,20.7483 110.582,21.7483 110.5,23.5 Z" />
    </g>
    <g>
        <path style="" fill="#212121"
            d="M 487.5,24.5 C 490.482,23.8351 493.648,23.5018 497,23.5C 501.772,23.3078 506.272,23.9745 510.5,25.5C 502.862,24.6869 495.196,24.3536 487.5,24.5 Z" />
    </g>
    <g>
        <path style="" fill="#212121"
            d="M 663.5,24.5 C 656.833,24.5 650.167,24.5 643.5,24.5C 646.665,23.6778 649.998,23.0111 653.5,22.5C 657.002,23.0111 660.335,23.6778 663.5,24.5 Z" />
    </g>
    <g>
        <path style="" fill="#212121"
            d="M 738.5,28.5 C 737.751,27.469 737.085,26.3024 736.5,25C 733.518,24.502 730.518,24.3354 727.5,24.5C 730.993,22.3932 734.493,22.3932 738,24.5C 738.49,25.7932 738.657,27.1266 738.5,28.5 Z" />
    </g>
    <g>
        <path style="" fill="#212121"
            d="M 790.5,27.5 C 789.596,26.791 789.263,25.791 789.5,24.5C 786.813,24.3359 784.146,24.5026 781.5,25C 777.295,26.6799 772.962,27.8466 768.5,28.5C 774.197,25.9342 780.197,23.9342 786.5,22.5C 789.492,22.8091 790.825,24.4758 790.5,27.5 Z" />
    </g>
    <g>
        <path style="" fill="#212121"
            d="M 40.5,26.5 C 31.8333,26.1667 23.1667,25.8333 14.5,25.5C 13.8333,25.5 13.5,25.1667 13.5,24.5C 13.4346,24.0618 13.6012,23.7284 14,23.5C 22.957,24.2322 31.7903,25.2322 40.5,26.5 Z" />
    </g>
    <g>
        <path style="" fill="#212121"
            d="M 568.5,25.5 C 561.833,25.5 555.167,25.5 548.5,25.5C 548.5,48.5 548.5,71.5 548.5,94.5C 547.502,71.3393 547.169,48.006 547.5,24.5C 554.687,24.1755 561.687,24.5088 568.5,25.5 Z" />
    </g>
    <g>
        <path style="" fill="#212121"
            d="M 643.5,24.5 C 650.167,24.5 656.833,24.5 663.5,24.5C 673.077,25.2795 680.41,29.6128 685.5,37.5C 683.738,35.2995 681.404,34.1328 678.5,34C 678.957,33.586 679.291,33.086 679.5,32.5C 675.329,29.1519 670.495,27.4853 665,27.5C 663.674,27.2451 662.674,26.5784 662,25.5C 652.788,24.8604 643.621,25.5271 634.5,27.5C 637.145,25.6896 640.145,24.6896 643.5,24.5 Z" />
    </g>
    <g>
        <path style="" fill="#212121"
            d="M 178.5,23.5 C 176.829,26.204 175.163,28.8707 173.5,31.5C 173.826,28.6887 174.659,26.022 176,23.5C 176.977,22.2264 177.811,22.2264 178.5,23.5 Z" />
    </g>
    <g>
        <path style="" fill="#212121"
            d="M 292.5,25.5 C 296.8,25.7547 300.8,26.7547 304.5,28.5C 300.837,28.0482 297.17,27.5482 293.5,27C 292.944,26.6174 292.611,26.1174 292.5,25.5 Z" />
    </g>
    <g>
        <path style="" fill="#212121"
            d="M 575.5,25.5 C 580.092,25.8816 584.425,26.8816 588.5,28.5C 584.158,28.2605 579.824,27.9272 575.5,27.5C 575.5,27.1667 575.5,26.8333 575.5,26.5C 575.5,26.1667 575.5,25.8333 575.5,25.5 Z" />
    </g>
    <g>
        <path style="" fill="#212121"
            d="M 727.5,24.5 C 724.916,26.4725 721.916,27.4725 718.5,27.5C 721.215,25.9281 724.215,24.9281 727.5,24.5 Z" />
    </g>
    <g>
        <path style="" fill="#212121"
            d="M 487.5,24.5 C 484.2,26.6418 480.533,27.9751 476.5,28.5C 479.66,26 483.327,24.6667 487.5,24.5 Z" />
    </g>
    <g>
        <path style="" fill="#212121"
            d="M 685.5,37.5 C 687.25,38.6594 688.25,40.326 688.5,42.5C 689.477,46.6037 690.143,50.7704 690.5,55C 689.972,60.5263 689.306,66.0263 688.5,71.5C 687.5,71.5 686.5,71.5 685.5,71.5C 683.878,75.0739 682.545,78.7406 681.5,82.5C 678.5,82.1667 677.167,83.5 677.5,86.5C 677.027,87.9063 676.027,88.573 674.5,88.5C 673.054,87.3871 671.387,87.2204 669.5,88C 666.133,88.7996 662.966,89.9663 660,91.5C 656.001,91.9726 652.001,91.306 648,89.5C 645.879,91.4574 643.379,91.9574 640.5,91C 637.709,89.3815 634.709,88.2149 631.5,87.5C 630.833,86.1667 630.167,84.8333 629.5,83.5C 628.833,84.5 628.167,85.5 627.5,86.5C 621.022,84.7937 621.022,82.9603 627.5,81C 625.191,80.2438 623.191,80.7438 621.5,82.5C 620.431,81.0905 619.097,80.0905 617.5,79.5C 617.5,77.1667 617.5,74.8333 617.5,72.5C 616.041,72.5674 614.708,72.2341 613.5,71.5C 613.05,63.0209 613.717,54.6876 615.5,46.5C 616.998,41.6783 619.664,37.6783 623.5,34.5C 627.439,32.5538 631.106,30.2205 634.5,27.5C 643.621,25.5271 652.788,24.8604 662,25.5C 662.674,26.5784 663.674,27.2451 665,27.5C 670.495,27.4853 675.329,29.1519 679.5,32.5C 679.291,33.086 678.957,33.586 678.5,34C 681.404,34.1328 683.738,35.2995 685.5,37.5 Z M 655.5,39.5 C 656.568,40.4345 657.901,40.7678 659.5,40.5C 660.5,42.1667 661.833,43.5 663.5,44.5C 663.932,45.7095 664.599,46.7095 665.5,47.5C 665.858,50.6888 666.525,53.6888 667.5,56.5C 667.036,61.6213 666.036,66.6213 664.5,71.5C 663.094,71.9731 662.427,72.9731 662.5,74.5C 661.833,74.5 661.5,74.8333 661.5,75.5C 659.566,76.1103 657.899,77.1103 656.5,78.5C 652.119,78.6282 647.785,78.2949 643.5,77.5C 642.5,75.8333 641.167,74.5 639.5,73.5C 638.489,70.0596 637.489,66.7263 636.5,63.5C 636.643,57.9686 637.643,52.6352 639.5,47.5C 639.833,46.8333 640.167,46.1667 640.5,45.5C 644.472,41.0166 649.472,39.0166 655.5,39.5 Z" />
    </g>
    <g>
        <path style="" fill="#212121"
            d="M 14.5,25.5 C 23.1667,25.8333 31.8333,26.1667 40.5,26.5C 46.4147,26.5842 51.7481,28.2508 56.5,31.5C 57.6298,33.3146 58.2964,35.3146 58.5,37.5C 53.5281,31.6436 47.8614,30.977 41.5,35.5C 42.6053,36.8924 43.9386,38.059 45.5,39C 44.3144,41.7481 43.3144,44.5815 42.5,47.5C 41.0834,49.2611 39.4167,50.5944 37.5,51.5C 38.1712,52.8471 38.1712,54.0138 37.5,55C 38.4158,55.2784 39.0825,55.7784 39.5,56.5C 35.7604,56.7592 32.0938,56.4259 28.5,55.5C 27.1667,34.1667 25.8333,34.1667 24.5,55.5C 22.6106,57.7998 21.2773,60.4664 20.5,63.5C 20.1667,63 19.8333,62.5 19.5,62C 21.5828,54.3578 21.9161,46.6911 20.5,39C 22.5547,38.3128 24.2214,37.1461 25.5,35.5C 24.9646,33.7295 24.1313,33.3961 23,34.5C 20.7342,33.0437 18.2342,32.2104 15.5,32C 20.798,30.8407 26.1313,30.0074 31.5,29.5C 31.5,30.5 31.5,31.5 31.5,32.5C 34.9529,32.7735 37.6196,31.4402 39.5,28.5C 35.8583,27.4105 32.1917,27.4105 28.5,28.5C 24.0526,26.5021 19.5526,26.1688 15,27.5C 14.5357,26.9056 14.369,26.2389 14.5,25.5 Z M 37.5,38.5 C 39.2261,40.8201 39.8928,43.4867 39.5,46.5C 38.6618,46.8417 38.3284,47.5084 38.5,48.5C 37.1667,49.1667 36.1667,50.1667 35.5,51.5C 34.5084,51.3284 33.8417,51.6618 33.5,52.5C 32.5,52.5 31.5,52.5 30.5,52.5C 30.3343,48.1539 30.501,43.8206 31,39.5C 31.5194,38.4844 32.3527,37.8178 33.5,37.5C 34.8492,37.8457 36.1825,38.179 37.5,38.5 Z" />
    </g>
    <g>
        <path style="" fill="#212121"
            d="M 103.5,26.5 C 103.445,29.6145 102.112,31.9478 99.5,33.5C 100.584,30.9959 101.917,28.6626 103.5,26.5 Z" />
    </g>
    <g>
        <path style="" fill="#212121"
            d="M 110.5,23.5 C 112.83,27.4921 115.163,31.4921 117.5,35.5C 114.396,33.0243 111.896,30.0243 110,26.5C 108.594,27.6682 107.428,27.3348 106.5,25.5C 105.686,27.7662 105.186,30.0995 105,32.5C 103.581,33.4601 102.081,34.2935 100.5,35C 100.085,37.0263 99.0853,38.5263 97.5,39.5C 97.8333,38.1667 98.1667,36.8333 98.5,35.5C 98.3284,34.5084 98.6618,33.8417 99.5,33.5C 102.112,31.9478 103.445,29.6145 103.5,26.5C 103.328,25.5084 103.662,24.8417 104.5,24.5C 105.482,23.8592 106.482,23.1925 107.5,22.5C 108.417,23.1272 109.417,23.4606 110.5,23.5 Z" />
    </g>
    <g>
        <path style="" fill="#212121"
            d="M 768.5,28.5 C 765.948,30.9432 762.948,32.6099 759.5,33.5C 762.008,31.0764 765.008,29.4097 768.5,28.5 Z" />
    </g>
    <g>
        <path style="" fill="#212121"
            d="M 220.5,29.5 C 220.25,31.674 219.25,33.3406 217.5,34.5C 217.75,32.326 218.75,30.6594 220.5,29.5 Z" />
    </g>
    <g>
        <path style="" fill="#212121"
            d="M 487.5,24.5 C 495.196,24.3536 502.862,24.6869 510.5,25.5C 514.852,25.8457 518.519,27.5124 521.5,30.5C 522.11,31.391 522.443,32.391 522.5,33.5C 519.85,32.1751 517.184,30.8418 514.5,29.5C 513.014,29.8971 511.514,30.2305 510,30.5C 502.277,29.899 494.61,29.2324 487,28.5C 486.517,29.448 486.351,30.448 486.5,31.5C 484.248,30.6669 482.081,30.6669 480,31.5C 479.899,34.6996 479.232,37.6996 478,40.5C 476.117,39.3474 475.284,37.6807 475.5,35.5C 472.033,35.4457 469.366,36.9457 467.5,40C 466.552,40.4828 465.552,40.6495 464.5,40.5C 462.052,46.19 460.386,52.19 459.5,58.5C 459.833,59.5 460.167,60.5 460.5,61.5C 461.895,60.1854 462.895,60.5188 463.5,62.5C 462.86,65.6478 461.86,65.9812 460.5,63.5C 459.832,65.9688 459.165,68.3021 458.5,70.5C 458.06,68.1561 457.06,66.1561 455.5,64.5C 455.19,61.2869 455.523,58.2869 456.5,55.5C 457.421,52.324 458.921,49.324 461,46.5C 461.494,44.8659 461.66,43.1992 461.5,41.5C 462.906,41.0269 463.573,40.0269 463.5,38.5C 466.663,33.6733 470.996,30.34 476.5,28.5C 480.533,27.9751 484.2,26.6418 487.5,24.5 Z" />
    </g>
    <g>
        <path style="" fill="#212121"
            d="M 575.5,27.5 C 579.824,27.9272 584.158,28.2605 588.5,28.5C 600.903,32.1624 603.903,39.4958 597.5,50.5C 596.127,50.3433 594.793,50.51 593.5,51C 594.598,51.7697 594.598,52.603 593.5,53.5C 593.167,54.5 592.5,55.1667 591.5,55.5C 591.167,55.5 590.833,55.5 590.5,55.5C 590.389,54.8826 590.056,54.3826 589.5,54C 591.625,50.3754 594.291,47.2087 597.5,44.5C 597.192,43.6919 596.692,43.0253 596,42.5C 592.312,46.3719 590.812,45.3719 591.5,39.5C 593.199,39.6602 594.866,39.4935 596.5,39C 594.192,35.5339 591.192,33.0339 587.5,31.5C 587.076,35.2682 585.076,37.9349 581.5,39.5C 580.831,41.6309 580.165,43.6309 579.5,45.5C 579.662,43.4727 579.495,41.4727 579,39.5C 578.184,38.1772 577.017,37.5106 575.5,37.5C 573.393,36.5318 571.059,36.1984 568.5,36.5C 568.5,39.8333 568.5,43.1667 568.5,46.5C 568.5,48.1667 568.5,49.8333 568.5,51.5C 568.5,52.1667 568.5,52.8333 568.5,53.5C 565.531,50.1943 564.865,46.3609 566.5,42C 566.05,40.7147 565.383,39.548 564.5,38.5C 565.981,37.5197 567.315,36.353 568.5,35C 571.942,34.8835 574.942,33.7168 577.5,31.5C 579.24,33.2108 581.24,34.0442 583.5,34C 581.609,31.1984 578.942,30.0318 575.5,30.5C 575.5,29.5 575.5,28.5 575.5,27.5 Z M 575.5,37.5 C 580.306,44.9209 578.472,50.2542 570,53.5C 569.722,52.5842 569.222,51.9175 568.5,51.5C 568.5,49.8333 568.5,48.1667 568.5,46.5C 569.477,43.7131 569.81,40.7131 569.5,37.5C 571.5,37.5 573.5,37.5 575.5,37.5 Z" />
    </g>
    <g>
        <path style="" fill="#212121"
            d="M 634.5,27.5 C 631.106,30.2205 627.439,32.5538 623.5,34.5C 626.358,30.9905 630.024,28.6571 634.5,27.5 Z" />
    </g>
    <g>
        <path style="" fill="#212121"
            d="M 716.5,28.5 C 714.967,30.2451 712.967,31.2451 710.5,31.5C 712.033,29.7549 714.033,28.7549 716.5,28.5 Z" />
    </g>
    <g>
        <path style="" fill="#212121"
            d="M 727.5,24.5 C 730.518,24.3354 733.518,24.502 736.5,25C 737.085,26.3024 737.751,27.469 738.5,28.5C 738.5,32.1667 738.5,35.8333 738.5,39.5C 733.956,40.491 729.289,41.491 724.5,42.5C 722.516,42.484 721.516,43.484 721.5,45.5C 721.747,46.7133 722.414,47.38 723.5,47.5C 724.5,47.8333 725.167,48.5 725.5,49.5C 725.389,50.1174 725.056,50.6174 724.5,51C 728.083,52.7996 731.75,54.2996 735.5,55.5C 735.03,58.3456 735.863,60.6789 738,62.5C 738.826,60.5946 739.993,60.2612 741.5,61.5C 739.996,64.5056 740.663,65.1723 743.5,63.5C 743.517,65.5648 743.85,67.5648 744.5,69.5C 744.768,71.099 744.434,72.4324 743.5,73.5C 742.573,75.5762 740.907,76.7428 738.5,77C 739.694,79.6578 738.694,80.8244 735.5,80.5C 735.5,81.8333 735.5,83.1667 735.5,84.5C 730.931,88.4814 725.597,91.1481 719.5,92.5C 716.572,92.5651 713.905,93.2318 711.5,94.5C 708.833,94.5 706.167,94.5 703.5,94.5C 702.631,92.283 702.298,89.9496 702.5,87.5C 702.264,84.3915 702.597,81.3915 703.5,78.5C 706.096,77.7347 708.763,77.4013 711.5,77.5C 715.182,77.4093 718.349,76.076 721,73.5C 720.937,69.921 719.104,67.5877 715.5,66.5C 714.508,66.6716 713.842,66.3382 713.5,65.5C 713.414,64.5041 713.748,63.6708 714.5,63C 709.816,60.2016 705.149,57.7016 700.5,55.5C 699.8,51.2022 699.467,46.8689 699.5,42.5C 700.906,42.0269 701.573,41.0269 701.5,39.5C 702.906,39.0269 703.573,38.0269 703.5,36.5C 705.086,35.5868 706.586,35.5868 708,36.5C 708.033,34.7191 708.867,33.0525 710.5,31.5C 712.967,31.2451 714.967,30.2451 716.5,28.5C 716.842,27.6618 717.508,27.3284 718.5,27.5C 721.916,27.4725 724.916,26.4725 727.5,24.5 Z" />
    </g>
    <g>
        <path style="" fill="#212121"
            d="M 178.5,23.5 C 183.557,29.9248 187.89,36.9248 191.5,44.5C 190.378,46.2884 190.211,48.2884 191,50.5C 194.917,52.0861 195.417,54.4194 192.5,57.5C 194.414,59.4829 196.414,61.4829 198.5,63.5C 199.897,65.9818 200.731,68.6484 201,71.5C 203.392,76.0694 205.559,76.236 207.5,72C 205.334,69.3397 203.667,66.3397 202.5,63C 204.617,61.2691 206.117,59.1024 207,56.5C 207.915,57.3279 208.581,58.3279 209,59.5C 210.956,59.2155 213.123,59.2155 215.5,59.5C 215.034,61.2012 215.034,62.7012 215.5,64C 211.596,65.3485 210.263,67.8485 211.5,71.5C 210.687,72.8139 209.687,73.9805 208.5,75C 209.138,76.7067 209.138,78.54 208.5,80.5C 207.312,81.6843 206.145,81.6843 205,80.5C 204.383,81.4491 204.549,82.2825 205.5,83C 203.682,84.739 202.682,86.9057 202.5,89.5C 201.123,92.7258 199.457,93.0591 197.5,90.5C 197.573,88.9731 196.906,87.9731 195.5,87.5C 195.13,84.733 193.796,82.733 191.5,81.5C 191.5,81.1667 191.5,80.8333 191.5,80.5C 191.663,78.1432 191.497,75.8098 191,73.5C 190.692,74.3081 190.192,74.9747 189.5,75.5C 188.591,73.6253 187.257,72.292 185.5,71.5C 185.5,69.1667 185.5,66.8333 185.5,64.5C 183.328,63.1989 180.995,62.1989 178.5,61.5C 178.384,64.8599 178.051,68.1933 177.5,71.5C 176.504,71.4142 175.671,71.7476 175,72.5C 174.871,75.0027 173.871,77.0027 172,78.5C 171.246,84.2012 170.413,89.8678 169.5,95.5C 166.341,93.9205 163.007,92.9205 159.5,92.5C 156.458,92.2671 153.792,91.2671 151.5,89.5C 153.48,83.5296 155.48,77.5296 157.5,71.5C 159.381,68.0944 161.548,64.7611 164,61.5C 164.871,56.3966 166.038,51.3966 167.5,46.5C 167.5,46.1667 167.5,45.8333 167.5,45.5C 169.335,44.8777 170.502,43.5444 171,41.5C 171.766,45.2691 172.599,45.1024 173.5,41C 173.095,40.0546 172.428,39.3879 171.5,39C 172.867,36.6985 173.534,34.1985 173.5,31.5C 175.163,28.8707 176.829,26.204 178.5,23.5 Z" />
    </g>
    <g>
        <path style="" fill="#212121"
            d="M 234.5,45.5 C 234.5,46.1667 234.5,46.8333 234.5,47.5C 232.689,47.428 231.356,46.5947 230.5,45C 228.928,39.4531 227.262,33.9531 225.5,28.5C 223.912,30.1133 222.912,32.1133 222.5,34.5C 221.726,35.7112 220.893,35.7112 220,34.5C 218.25,36.424 216.417,38.0907 214.5,39.5C 215.263,37.6316 216.263,35.9649 217.5,34.5C 219.25,33.3406 220.25,31.674 220.5,29.5C 221.242,26.2136 223.075,24.8803 226,25.5C 229.121,32.0724 231.955,38.7391 234.5,45.5 Z" />
    </g>
    <g>
        <path style="" fill="#212121"
            d="M 284.5,25.5 C 278.167,25.5 271.833,25.5 265.5,25.5C 265.5,43.5 265.5,61.5 265.5,79.5C 264.513,84.3054 264.179,89.3054 264.5,94.5C 264.55,71.9905 264.383,49.3238 264,26.5C 265.719,24.6836 267.885,23.6836 270.5,23.5C 275.324,24.0603 279.99,24.727 284.5,25.5 Z" />
    </g>
    <g>
        <path style="" fill="#212121"
            d="M 305.5,28.5 C 310.671,29.6721 314.338,32.6721 316.5,37.5C 314.61,35.4224 312.276,34.0891 309.5,33.5C 309.5,32.5 309.5,31.5 309.5,30.5C 307.62,30.7709 306.287,30.1042 305.5,28.5 Z" />
    </g>
    <g>
        <path style="" fill="#212121"
            d="M 334.5,25.5 C 335.497,47.6604 335.831,69.9938 335.5,92.5C 341.842,92.6662 348.175,92.4995 354.5,92C 353.366,90.984 353.699,90.3173 355.5,90C 354.861,79.1831 354.528,68.0165 354.5,56.5C 354.501,45.811 355.168,35.4777 356.5,25.5C 357.814,48.1246 357.814,70.7912 356.5,93.5C 349.174,94.7899 341.841,94.7899 334.5,93.5C 333.197,70.7847 333.197,48.118 334.5,25.5 Z" />
    </g>
    <g>
        <path style="" fill="#212121"
            d="M 383.5,27.5 C 381.742,27.1231 380.075,26.4565 378.5,25.5C 377.59,34.3251 376.59,42.9917 375.5,51.5C 375.394,42.4674 375.894,33.4674 377,24.5C 377.414,24.0426 377.914,23.7093 378.5,23.5C 380.419,24.6125 382.086,25.9458 383.5,27.5 Z" />
    </g>
    <g>
        <path style="" fill="#212121"
            d="M 445.5,26.5 C 446.147,27.2739 446.48,28.2739 446.5,29.5C 445.713,38.3381 444.713,47.0048 443.5,55.5C 443.5,50.5 443.5,45.5 443.5,40.5C 444.43,36.6002 444.763,32.6002 444.5,28.5C 445.338,28.1583 445.672,27.4916 445.5,26.5 Z" />
    </g>
    <g>
        <path style="" fill="#212121"
            d="M 575.5,26.5 C 575.5,26.8333 575.5,27.1667 575.5,27.5C 575.5,28.5 575.5,29.5 575.5,30.5C 578.942,30.0318 581.609,31.1984 583.5,34C 581.24,34.0442 579.24,33.2108 577.5,31.5C 574.942,33.7168 571.942,34.8835 568.5,35C 567.315,36.353 565.981,37.5197 564.5,38.5C 565.383,39.548 566.05,40.7147 566.5,42C 564.865,46.3609 565.531,50.1943 568.5,53.5C 569.601,54.5983 570.934,54.765 572.5,54C 576.866,52.8035 579.2,49.9702 579.5,45.5C 580.165,43.6309 580.831,41.6309 581.5,39.5C 585.076,37.9349 587.076,35.2682 587.5,31.5C 591.192,33.0339 594.192,35.5339 596.5,39C 594.866,39.4935 593.199,39.6602 591.5,39.5C 590.812,45.3719 592.312,46.3719 596,42.5C 596.692,43.0253 597.192,43.6919 597.5,44.5C 594.291,47.2087 591.625,50.3754 589.5,54C 590.056,54.3826 590.389,54.8826 590.5,55.5C 590.167,55.5 589.833,55.5 589.5,55.5C 587.656,56.2039 587.156,57.5372 588,59.5C 588.667,60.8333 589.333,60.8333 590,59.5C 590.915,60.3279 591.581,61.3279 592,62.5C 592.333,61.8333 592.667,61.1667 593,60.5C 601.231,65.5234 602.731,72.19 597.5,80.5C 595.338,82.0198 593.005,83.0198 590.5,83.5C 590.5,84.5 590.5,85.5 590.5,86.5C 588.833,86.5 587.167,86.5 585.5,86.5C 585.812,83.1116 584.479,80.6116 581.5,79C 583.048,74.6512 582.715,70.4845 580.5,66.5C 581.631,65.3961 582.465,65.7295 583,67.5C 583.667,66.5 583.667,65.5 583,64.5C 579.086,62.4599 575.252,60.2933 571.5,58C 570.216,57.3162 569.049,57.4829 568,58.5C 563.919,66.9815 564.086,75.3148 568.5,83.5C 568.291,84.086 567.957,84.586 567.5,85C 568.872,85.4017 570.205,85.9017 571.5,86.5C 571.833,86.1667 572.167,85.8333 572.5,85.5C 571.624,84.7492 570.624,84.2492 569.5,84C 570.858,83.0656 572.192,82.2323 573.5,81.5C 576.167,81.5 578.833,81.5 581.5,81.5C 581.67,82.8221 581.337,83.9887 580.5,85C 583.544,85.3589 583.878,86.0255 581.5,87C 582.623,88.0437 583.956,88.7104 585.5,89C 584.944,89.3826 584.611,89.8826 584.5,90.5C 583.432,91.4345 582.099,91.7678 580.5,91.5C 577.482,91.7038 574.482,92.0371 571.5,92.5C 565.021,91.5093 558.354,91.176 551.5,91.5C 550.382,71.5243 550.215,51.5243 551,31.5C 552.131,29.2025 553.964,27.8692 556.5,27.5C 562.802,26.627 569.135,26.2936 575.5,26.5 Z M 575.5,37.5 C 580.306,44.9209 578.472,50.2542 570,53.5C 569.722,52.5842 569.222,51.9175 568.5,51.5C 568.5,49.8333 568.5,48.1667 568.5,46.5C 569.477,43.7131 569.81,40.7131 569.5,37.5C 571.5,37.5 573.5,37.5 575.5,37.5 Z M 574.5,64.5 C 579.855,66.2035 581.855,69.8701 580.5,75.5C 578.809,76.8637 577.142,78.197 575.5,79.5C 574.508,79.3284 573.842,79.6618 573.5,80.5C 572.167,80.5 570.833,80.5 569.5,80.5C 569.737,79.209 569.404,78.209 568.5,77.5C 568.837,73.9889 568.837,70.6556 568.5,67.5C 569.404,66.791 569.737,65.791 569.5,64.5C 571.167,64.5 572.833,64.5 574.5,64.5 Z" />
    </g>
    <g>
        <path style="" fill="#212121"
            d="M 11.5,24.5 C 12.1667,24.5 12.8333,24.5 13.5,24.5C 13.5,25.1667 13.8333,25.5 14.5,25.5C 14.369,26.2389 14.5357,26.9056 15,27.5C 19.5526,26.1688 24.0526,26.5021 28.5,28.5C 32.1917,27.4105 35.8583,27.4105 39.5,28.5C 37.6196,31.4402 34.9529,32.7735 31.5,32.5C 31.5,31.5 31.5,30.5 31.5,29.5C 26.1313,30.0074 20.798,30.8407 15.5,32C 18.2342,32.2104 20.7342,33.0437 23,34.5C 24.1313,33.3961 24.9646,33.7295 25.5,35.5C 24.2214,37.1461 22.5547,38.3128 20.5,39C 21.9161,46.6911 21.5828,54.3578 19.5,62C 19.8333,62.5 20.1667,63 20.5,63.5C 21.2773,60.4664 22.6106,57.7998 24.5,55.5C 25.8333,34.1667 27.1667,34.1667 28.5,55.5C 32.0938,56.4259 35.7604,56.7592 39.5,56.5C 35.1937,56.8865 31.3604,58.5532 28,61.5C 27.2387,68.5307 27.4054,75.5307 28.5,82.5C 28.1012,84.1966 27.6012,85.8632 27,87.5C 26.2588,88.6405 25.4255,88.6405 24.5,87.5C 23.2234,84.9659 23.2234,82.4659 24.5,80C 22.2324,78.4423 21.0657,76.2756 21,73.5C 19.7604,76.412 18.0937,79.0787 16,81.5C 15.6667,80.5 15.3333,79.5 15,78.5C 13.9963,81.9926 14.4963,85.1592 16.5,88C 21.1431,88.9983 25.8098,89.3317 30.5,89C 32.1036,84.335 35.4369,82.0017 40.5,82C 42.6944,79.3053 44.6944,76.472 46.5,73.5C 47.2432,74.9079 48.0766,76.2412 49,77.5C 52.1714,74.1378 55.6714,71.3045 59.5,69C 55.1403,66.4653 51.6403,67.2986 49,71.5C 48.6667,71.1667 48.3333,70.8333 48,70.5C 48.7388,67.6474 49.9055,64.8141 51.5,62C 54.2567,61.4163 56.9234,61.7496 59.5,63C 57.311,63.677 56.9776,64.8437 58.5,66.5C 59.6888,67.4287 61.0222,67.762 62.5,67.5C 62.6633,69.8568 62.4966,72.1902 62,74.5C 60.117,75.6526 59.2837,77.3193 59.5,79.5C 57.7673,80.0076 57.434,80.841 58.5,82C 57.552,82.4828 56.552,82.6495 55.5,82.5C 55.719,83.675 55.3857,84.675 54.5,85.5C 52.5914,86.3482 50.5914,86.6816 48.5,86.5C 45.9948,81.1883 43.6614,81.5216 41.5,87.5C 33.2556,91.5998 24.2556,92.9331 14.5,91.5C 13.6533,90.1552 12.4866,89.1552 11,88.5C 10.7165,68.1399 11.2165,47.8065 12.5,27.5C 12.315,26.4163 11.9817,25.4163 11.5,24.5 Z M 35.5,64.5 C 36.5137,65.6737 37.847,66.3404 39.5,66.5C 42.1667,70.1667 42.1667,73.8333 39.5,77.5C 37.7697,78.0256 36.4363,79.0256 35.5,80.5C 35.1667,80.5 34.8333,80.5 34.5,80.5C 33.1667,80.5 31.8333,80.5 30.5,80.5C 30.5,75.1667 30.5,69.8333 30.5,64.5C 32.1667,64.5 33.8333,64.5 35.5,64.5 Z" />
    </g>
    <g>
        <path style="" fill="#212121"
            d="M 58.5,37.5 C 58.5,38.1667 58.5,38.8333 58.5,39.5C 58.7363,42.8294 57.903,45.8294 56,48.5C 54.2494,47.8263 52.5827,47.493 51,47.5C 50.8485,50.1193 50.0152,52.4527 48.5,54.5C 47.8333,53.5 47.1667,52.5 46.5,51.5C 45.534,55.1384 43.2007,56.8051 39.5,56.5C 39.0825,55.7784 38.4158,55.2784 37.5,55C 38.1712,54.0138 38.1712,52.8471 37.5,51.5C 39.4167,50.5944 41.0834,49.2611 42.5,47.5C 43.3144,44.5815 44.3144,41.7481 45.5,39C 43.9386,38.059 42.6053,36.8924 41.5,35.5C 47.8614,30.977 53.5281,31.6436 58.5,37.5 Z" />
    </g>
    <g>
        <path style="" fill="#212121"
            d="M 710.5,31.5 C 708.867,33.0525 708.033,34.7191 708,36.5C 706.586,35.5868 705.086,35.5868 703.5,36.5C 705.296,34.1 707.63,32.4333 710.5,31.5 Z" />
    </g>
    <g>
        <path style="" fill="#212121"
            d="M 522.5,33.5 C 522.5,34.5 522.5,35.5 522.5,36.5C 523.822,36.67 524.989,36.3366 526,35.5C 526.986,37.7778 527.82,40.1111 528.5,42.5C 530.857,43.4032 532.357,45.0698 533,47.5C 533.499,52.4889 533.666,57.4889 533.5,62.5C 533.167,65.1667 532.833,67.8333 532.5,70.5C 532.5,70.8333 532.5,71.1667 532.5,71.5C 530.952,71.8212 530.285,72.8212 530.5,74.5C 528.058,74.1192 527.391,74.7859 528.5,76.5C 526.995,77.8415 526.328,79.5082 526.5,81.5C 524.504,79.0831 523.504,79.7498 523.5,83.5C 522.5,83.5 521.5,83.5 520.5,83.5C 520.737,84.791 520.404,85.791 519.5,86.5C 517.076,86.8076 514.743,86.4742 512.5,85.5C 514.633,78.867 518.967,74.367 525.5,72C 521.218,70.1751 516.885,70.0085 512.5,71.5C 512.666,62.1607 512.5,52.8274 512,43.5C 511.5,42.5 511,41.5 510.5,40.5C 508.138,39.7285 505.804,38.8952 503.5,38C 502.167,37.3333 502.167,36.6667 503.5,36C 499.151,35.6342 495.651,33.8009 493,30.5C 489.524,32.4551 485.69,33.6217 481.5,34C 483.979,34.8786 485.979,36.3786 487.5,38.5C 486.758,39.2868 485.925,39.9535 485,40.5C 484.282,39.5494 483.449,39.3828 482.5,40C 483.823,40.8159 484.489,41.9826 484.5,43.5C 483.4,44.6049 482.733,45.9382 482.5,47.5C 481.833,48.1667 481.167,48.8333 480.5,49.5C 479.778,49.9175 479.278,50.5842 479,51.5C 477.886,60.0103 478.552,68.3437 481,76.5C 482.815,78.4049 484.815,80.0716 487,81.5C 487.483,82.448 487.649,83.448 487.5,84.5C 488.5,84.5 489.5,84.5 490.5,84.5C 490.351,85.552 490.517,86.552 491,87.5C 492.113,86.2889 493.28,86.2889 494.5,87.5C 496.003,86.4099 496.336,85.2433 495.5,84C 501.672,83.497 506.838,80.997 511,76.5C 511.667,78.5 511.667,80.5 511,82.5C 508.273,83.158 505.773,84.3246 503.5,86C 505.059,86.9799 506.726,87.8133 508.5,88.5C 508.167,88.8333 507.833,89.1667 507.5,89.5C 503.882,90.3507 500.216,91.0174 496.5,91.5C 492.716,90.6897 488.883,90.6897 485,91.5C 478.15,92.0927 474.15,89.0927 473,82.5C 472.02,81.0186 470.853,79.6853 469.5,78.5C 465.721,77.7742 462.054,76.7742 458.5,75.5C 458.5,73.8333 458.5,72.1667 458.5,70.5C 459.165,68.3021 459.832,65.9688 460.5,63.5C 461.86,65.9812 462.86,65.6478 463.5,62.5C 462.895,60.5188 461.895,60.1854 460.5,61.5C 460.167,60.5 459.833,59.5 459.5,58.5C 460.386,52.19 462.052,46.19 464.5,40.5C 465.552,40.6495 466.552,40.4828 467.5,40C 469.366,36.9457 472.033,35.4457 475.5,35.5C 475.284,37.6807 476.117,39.3474 478,40.5C 479.232,37.6996 479.899,34.6996 480,31.5C 482.081,30.6669 484.248,30.6669 486.5,31.5C 486.351,30.448 486.517,29.448 487,28.5C 494.61,29.2324 502.277,29.899 510,30.5C 511.514,30.2305 513.014,29.8971 514.5,29.5C 517.184,30.8418 519.85,32.1751 522.5,33.5 Z M 503.5,40.5 C 504.5,42.1667 505.833,43.5 507.5,44.5C 508.716,47.8714 509.716,51.2047 510.5,54.5C 510.5,54.8333 510.5,55.1667 510.5,55.5C 510.354,59.5191 510.021,63.5191 509.5,67.5C 508.326,68.5137 507.66,69.847 507.5,71.5C 506.197,73.1423 504.864,74.8089 503.5,76.5C 499.028,78.2157 494.362,78.8824 489.5,78.5C 487.537,77.1798 485.537,75.8465 483.5,74.5C 483.573,72.9731 482.906,71.9731 481.5,71.5C 481.101,67.9891 480.434,64.6557 479.5,61.5C 480.299,58.5701 480.632,55.5701 480.5,52.5C 481.931,51.2196 482.598,49.5529 482.5,47.5C 484.262,46.7377 485.262,45.4044 485.5,43.5C 487.23,42.9744 488.564,41.9744 489.5,40.5C 494.157,39.2591 498.823,39.2591 503.5,40.5 Z" />
    </g>
    <g>
        <path style="" fill="#212121"
            d="M 738.5,28.5 C 739.529,30.9476 740.196,33.6143 740.5,36.5C 740.36,38.0296 739.693,39.0296 738.5,39.5C 738.5,35.8333 738.5,32.1667 738.5,28.5 Z" />
    </g>
    <g>
        <path style="" fill="#212121"
            d="M 56.5,31.5 C 63.1305,36.6158 64.1305,42.6158 59.5,49.5C 59.59,47.3037 59.9233,45.137 60.5,43C 60.6134,41.3009 59.9468,40.1342 58.5,39.5C 58.5,38.8333 58.5,38.1667 58.5,37.5C 58.2964,35.3146 57.6298,33.3146 56.5,31.5 Z" />
    </g>
    <g>
        <path style="" fill="#212121"
            d="M 98.5,35.5 C 98.1667,36.8333 97.8333,38.1667 97.5,39.5C 96.8333,39.5 96.1667,39.5 95.5,39.5C 96.0256,37.7697 97.0256,36.4363 98.5,35.5 Z" />
    </g>
    <g>
        <path style="" fill="#212121"
            d="M 234.5,47.5 C 235.195,50.9154 236.862,53.5821 239.5,55.5C 239.187,58.2469 239.52,60.9135 240.5,63.5C 242.753,65.4503 243.086,67.7837 241.5,70.5C 243.553,71.5266 245.553,72.5266 247.5,73.5C 248.404,74.209 248.737,75.209 248.5,76.5C 248.229,78.3797 248.896,79.713 250.5,80.5C 250.584,83.3274 251.25,85.994 252.5,88.5C 250.447,88.4021 248.78,89.0687 247.5,90.5C 244.911,90.461 242.911,91.461 241.5,93.5C 241.158,94.3382 240.492,94.6716 239.5,94.5C 237.5,94.5 235.5,94.5 233.5,94.5C 233.715,92.8212 233.048,91.8212 231.5,91.5C 231.351,86.2045 229.684,81.5379 226.5,77.5C 226.267,74.4582 225.267,71.7916 223.5,69.5C 223.167,67.5 222.833,65.5 222.5,63.5C 220.517,63.1568 219.183,63.8235 218.5,65.5C 218.068,66.7095 217.401,67.7095 216.5,68.5C 215.094,68.9731 214.427,69.9731 214.5,71.5C 212.745,74.6803 210.745,77.6803 208.5,80.5C 209.138,78.54 209.138,76.7067 208.5,75C 209.687,73.9805 210.687,72.8139 211.5,71.5C 210.263,67.8485 211.596,65.3485 215.5,64C 215.034,62.7012 215.034,61.2012 215.5,59.5C 213.123,59.2155 210.956,59.2155 209,59.5C 208.581,58.3279 207.915,57.3279 207,56.5C 206.117,59.1024 204.617,61.2691 202.5,63C 203.667,66.3397 205.334,69.3397 207.5,72C 205.559,76.236 203.392,76.0694 201,71.5C 200.731,68.6484 199.897,65.9818 198.5,63.5C 196.414,61.4829 194.414,59.4829 192.5,57.5C 195.417,54.4194 194.917,52.0861 191,50.5C 190.211,48.2884 190.378,46.2884 191.5,44.5C 194.996,48.8187 197.996,53.4854 200.5,58.5C 201.86,61.0155 202.86,60.6822 203.5,57.5C 205.796,56.267 207.13,54.267 207.5,51.5C 207.75,49.326 208.75,47.6594 210.5,46.5C 212.669,44.6597 214.002,42.3263 214.5,39.5C 216.417,38.0907 218.25,36.424 220,34.5C 220.893,35.7112 221.726,35.7112 222.5,34.5C 222.912,32.1133 223.912,30.1133 225.5,28.5C 227.262,33.9531 228.928,39.4531 230.5,45C 231.356,46.5947 232.689,47.428 234.5,47.5 Z" />
    </g>
    <g>
        <path style="" fill="#212121"
            d="M 356.5,25.5 C 355.168,35.4777 354.501,45.811 354.5,56.5C 354.528,68.0165 354.861,79.1831 355.5,90C 353.699,90.3173 353.366,90.984 354.5,92C 348.175,92.4995 341.842,92.6662 335.5,92.5C 335.831,69.9938 335.497,47.6604 334.5,25.5C 338.223,24.0033 342.223,23.3367 346.5,23.5C 349.167,23.6667 351.833,23.8333 354.5,24C 355.416,24.2784 356.082,24.7784 356.5,25.5 Z" />
    </g>
    <g>
        <path style="" fill="#212121"
            d="M 575.5,37.5 C 573.5,37.5 571.5,37.5 569.5,37.5C 569.81,40.7131 569.477,43.7131 568.5,46.5C 568.5,43.1667 568.5,39.8333 568.5,36.5C 571.059,36.1984 573.393,36.5318 575.5,37.5 Z" />
    </g>
    <g>
        <path style="" fill="#212121"
            d="M 758.5,59.5 C 755.751,57.4176 753.417,55.0842 751.5,52.5C 751.335,48.8183 751.501,45.1516 752,41.5C 752.66,39.6763 753.827,38.343 755.5,37.5C 758.101,36.0208 760.934,35.0208 764,34.5C 767.194,35.6028 770.361,35.6028 773.5,34.5C 772.833,33.8333 772.167,33.1667 771.5,32.5C 773.93,29.8695 776.763,29.2028 780,30.5C 781.928,29.4403 783.595,28.107 785,26.5C 786.317,27.68 786.484,29.18 785.5,31C 786.748,33.4097 787.748,35.9097 788.5,38.5C 784.818,38.3347 781.152,38.5014 777.5,39C 774.92,40.7864 772.253,42.2864 769.5,43.5C 769.971,47.5025 771.971,50.6692 775.5,53C 771.5,53.6667 767.5,54.3333 763.5,55C 761.875,55.8525 761.542,56.8525 762.5,58C 760.942,58.21 759.609,58.71 758.5,59.5 Z" />
    </g>
    <g>
        <path style="" fill="#212121"
            d="M 444.5,28.5 C 444.763,32.6002 444.43,36.6002 443.5,40.5C 442.732,41.2625 442.232,42.2625 442,43.5C 440.836,58.1532 440.002,72.8199 439.5,87.5C 436.054,87.9819 432.721,87.9819 429.5,87.5C 428.415,85.4131 426.749,84.0798 424.5,83.5C 422.523,79.8489 419.523,77.5156 415.5,76.5C 414.415,74.4131 412.749,73.0798 410.5,72.5C 408.354,68.0126 405.021,65.0126 400.5,63.5C 399.129,61.0708 397.629,58.7375 396,56.5C 394.604,54.4732 392.938,54.1398 391,55.5C 390.689,60.3163 388.189,62.3163 383.5,61.5C 383.192,63.924 383.526,66.2573 384.5,68.5C 385.415,66.0197 386.915,65.3531 389,66.5C 389.185,73.7466 389.685,80.9133 390.5,88C 389.833,89.3333 388.833,90.3333 387.5,91C 383.514,91.4988 379.514,91.6655 375.5,91.5C 376.952,74.0758 379.286,56.7425 382.5,39.5C 383.451,40.3256 384.451,40.4922 385.5,40C 385.833,39 386.167,38 386.5,37C 389.888,36.3412 393.221,36.5078 396.5,37.5C 398.754,38.1237 400.421,39.457 401.5,41.5C 402.942,47.121 406.442,51.121 412,53.5C 413.825,52.4291 414.992,53.0958 415.5,55.5C 414.894,57.7094 414.227,59.876 413.5,62C 418.708,63.3967 424.041,63.8967 429.5,63.5C 429.104,60.5178 429.771,57.8511 431.5,55.5C 431.154,54.3044 430.654,54.3044 430,55.5C 429.333,49.8333 429.333,44.1667 430,38.5C 430.333,39.1667 430.667,39.8333 431,40.5C 433.425,37.4639 433.925,34.1306 432.5,30.5C 431.035,31.6087 430.035,31.1087 429.5,29C 431.61,28.4456 433.61,27.6123 435.5,26.5C 437.733,27.6145 439.899,27.6145 442,26.5C 442.417,27.756 443.25,28.4226 444.5,28.5 Z" />
    </g>
    <g>
        <path style="" fill="#212121"
            d="M 703.5,36.5 C 703.573,38.0269 702.906,39.0269 701.5,39.5C 701.427,37.9731 702.094,36.9731 703.5,36.5 Z" />
    </g>
    <g>
        <path style="" fill="#212121"
            d="M 37.5,38.5 C 36.1825,38.179 34.8492,37.8457 33.5,37.5C 32.3527,37.8178 31.5194,38.4844 31,39.5C 30.501,43.8206 30.3343,48.1539 30.5,52.5C 31.5,52.5 32.5,52.5 33.5,52.5C 32.4324,53.4345 31.099,53.7678 29.5,53.5C 29.5,47.8333 29.5,42.1667 29.5,36.5C 31.8568,36.3367 34.1902,36.5034 36.5,37C 37.056,37.3826 37.3893,37.8826 37.5,38.5 Z" />
    </g>
    <g>
        <path style="" fill="#212121"
            d="M 519.5,86.5 C 519.5,86.8333 519.5,87.1667 519.5,87.5C 517.973,87.427 516.973,88.0937 516.5,89.5C 506.452,95.2783 495.786,96.945 484.5,94.5C 482.485,93.0762 480.152,92.4095 477.5,92.5C 475.489,90.6609 473.156,89.1609 470.5,88C 471.167,87.6667 471.833,87.3333 472.5,87C 470.992,85.4933 469.659,83.8267 468.5,82C 467.833,81.3333 467.167,81.3333 466.5,82C 467.711,82.8928 467.711,83.7261 466.5,84.5C 465.583,83.8728 464.583,83.5394 463.5,83.5C 463.446,81.368 462.446,80.0347 460.5,79.5C 459.326,78.4863 458.66,77.153 458.5,75.5C 462.054,76.7742 465.721,77.7742 469.5,78.5C 470.853,79.6853 472.02,81.0186 473,82.5C 474.15,89.0927 478.15,92.0927 485,91.5C 488.883,90.6897 492.716,90.6897 496.5,91.5C 500.216,91.0174 503.882,90.3507 507.5,89.5C 507.833,89.1667 508.167,88.8333 508.5,88.5C 506.726,87.8133 505.059,86.9799 503.5,86C 505.773,84.3246 508.273,83.158 511,82.5C 511.667,80.5 511.667,78.5 511,76.5C 506.838,80.997 501.672,83.497 495.5,84C 496.336,85.2433 496.003,86.4099 494.5,87.5C 493.28,86.2889 492.113,86.2889 491,87.5C 490.517,86.552 490.351,85.552 490.5,84.5C 489.5,84.5 488.5,84.5 487.5,84.5C 487.649,83.448 487.483,82.448 487,81.5C 484.815,80.0716 482.815,78.4049 481,76.5C 478.552,68.3437 477.886,60.0103 479,51.5C 479.278,50.5842 479.778,49.9175 480.5,49.5C 480.5,50.5 480.5,51.5 480.5,52.5C 480.632,55.5701 480.299,58.5701 479.5,61.5C 479.336,64.1873 479.503,66.854 480,69.5C 480.278,70.4158 480.778,71.0825 481.5,71.5C 481.427,73.0269 482.094,74.0269 483.5,74.5C 484.13,77.7046 486.13,79.3712 489.5,79.5C 493.182,79.6653 496.848,79.4986 500.5,79C 502.119,78.7645 503.119,77.9311 503.5,76.5C 506.297,76.0334 507.631,74.3667 507.5,71.5C 509.176,70.8166 509.843,69.4832 509.5,67.5C 511.017,65.5379 511.684,63.2046 511.5,60.5C 511.493,58.6307 511.16,56.964 510.5,55.5C 510.5,55.1667 510.5,54.8333 510.5,54.5C 510.663,52.1432 510.497,49.8098 510,47.5C 509.623,46.0577 508.79,45.0577 507.5,44.5C 507.167,42.1667 505.833,40.8333 503.5,40.5C 501.321,39.0744 498.821,38.4078 496,38.5C 493.456,38.336 491.29,39.0027 489.5,40.5C 487.368,40.5544 486.035,41.5544 485.5,43.5C 485.167,43.5 484.833,43.5 484.5,43.5C 484.489,41.9826 483.823,40.8159 482.5,40C 483.449,39.3828 484.282,39.5494 485,40.5C 485.925,39.9535 486.758,39.2868 487.5,38.5C 485.979,36.3786 483.979,34.8786 481.5,34C 485.69,33.6217 489.524,32.4551 493,30.5C 495.651,33.8009 499.151,35.6342 503.5,36C 502.167,36.6667 502.167,37.3333 503.5,38C 505.804,38.8952 508.138,39.7285 510.5,40.5C 511,41.5 511.5,42.5 512,43.5C 512.5,52.8274 512.666,62.1607 512.5,71.5C 516.885,70.0085 521.218,70.1751 525.5,72C 518.967,74.367 514.633,78.867 512.5,85.5C 514.743,86.4742 517.076,86.8076 519.5,86.5 Z" />
    </g>
    <g>
        <path style="" fill="#212121"
            d="M 503.5,40.5 C 498.823,39.2591 494.157,39.2591 489.5,40.5C 491.29,39.0027 493.456,38.336 496,38.5C 498.821,38.4078 501.321,39.0744 503.5,40.5 Z" />
    </g>
    <g>
        <path style="" fill="#212121"
            d="M 568.5,25.5 C 570.833,25.5 573.167,25.5 575.5,25.5C 575.5,25.8333 575.5,26.1667 575.5,26.5C 569.135,26.2936 562.802,26.627 556.5,27.5C 553.964,27.8692 552.131,29.2025 551,31.5C 550.215,51.5243 550.382,71.5243 551.5,91.5C 558.354,91.176 565.021,91.5093 571.5,92.5C 571.5,92.8333 571.5,93.1667 571.5,93.5C 563.857,95.233 556.19,95.5664 548.5,94.5C 548.5,71.5 548.5,48.5 548.5,25.5C 555.167,25.5 561.833,25.5 568.5,25.5 Z" />
    </g>
    <g>
        <path style="" fill="#212121"
            d="M 791.5,39.5 C 787.705,40.6167 783.705,41.2833 779.5,41.5C 783.21,39.8643 787.21,39.1977 791.5,39.5 Z" />
    </g>
    <g>
        <path style="" fill="#212121"
            d="M 117.5,35.5 C 117.787,39.7232 118.454,43.8899 119.5,48C 117.621,49.9973 117.288,52.164 118.5,54.5C 119.167,53.5 119.833,52.5 120.5,51.5C 122.098,51.6097 123.765,51.943 125.5,52.5C 128.297,60.0861 132.297,66.9194 137.5,73C 137.043,73.414 136.709,73.914 136.5,74.5C 138.287,75.316 139.954,76.316 141.5,77.5C 142.437,80.5402 143.771,83.3735 145.5,86C 145.257,86.9021 144.923,87.7354 144.5,88.5C 143.486,89.6737 142.153,90.3404 140.5,90.5C 138.973,90.427 137.973,91.0937 137.5,92.5C 135.634,93.0138 133.8,93.6805 132,94.5C 130.357,93.6854 128.857,92.6854 127.5,91.5C 127.416,88.3183 126.083,85.985 123.5,84.5C 123.5,83.5 123.5,82.5 123.5,81.5C 120.5,81.5 117.5,81.5 114.5,81.5C 107.119,81.3143 99.7859,81.8143 92.5,83C 90.9837,84.897 90.317,87.0637 90.5,89.5C 88.8958,90.287 88.2291,91.6203 88.5,93.5C 88.1667,93.5 87.8333,93.5 87.5,93.5C 87.5594,91.2355 86.7261,90.9022 85,92.5C 83.4329,91.1439 81.5996,90.4772 79.5,90.5C 79.5,89.5 79.5,88.5 79.5,87.5C 78.1667,87.5 76.8333,87.5 75.5,87.5C 74.7537,84.6145 74.9204,81.6145 76,78.5C 76.3333,78.8333 76.6667,79.1667 77,79.5C 77.567,76.8323 78.067,74.1656 78.5,71.5C 79.5515,68.8069 80.5515,66.1402 81.5,63.5C 83.7271,62.5994 84.7271,60.9328 84.5,58.5C 85.9063,58.0269 86.573,57.0269 86.5,55.5C 86.3284,54.5084 86.6618,53.8417 87.5,53.5C 90.5023,50.8388 92.5023,47.5055 93.5,43.5C 95.1042,42.713 95.7709,41.3797 95.5,39.5C 96.1667,39.5 96.8333,39.5 97.5,39.5C 99.0853,38.5263 100.085,37.0263 100.5,35C 102.081,34.2935 103.581,33.4601 105,32.5C 105.186,30.0995 105.686,27.7662 106.5,25.5C 107.428,27.3348 108.594,27.6682 110,26.5C 111.896,30.0243 114.396,33.0243 117.5,35.5 Z M 108.5,55.5 C 108.427,57.0269 109.094,58.0269 110.5,58.5C 110.796,60.403 111.463,62.0697 112.5,63.5C 112.64,65.1238 111.973,66.2904 110.5,67C 107.518,67.498 104.518,67.6646 101.5,67.5C 102.167,65.1667 102.833,62.8333 103.5,60.5C 104.674,59.4863 105.34,58.153 105.5,56.5C 106.391,55.8902 107.391,55.5569 108.5,55.5 Z" />
    </g>
    <g>
        <path style="" fill="#212121"
            d="M 463.5,38.5 C 463.573,40.0269 462.906,41.0269 461.5,41.5C 461.427,39.9731 462.094,38.9731 463.5,38.5 Z" />
    </g>
    <g>
        <path style="" fill="#212121"
            d="M 659.5,40.5 C 661.833,40.8333 663.167,42.1667 663.5,44.5C 661.833,43.5 660.5,42.1667 659.5,40.5 Z" />
    </g>
    <g>
        <path style="" fill="#212121"
            d="M 489.5,40.5 C 488.564,41.9744 487.23,42.9744 485.5,43.5C 486.035,41.5544 487.368,40.5544 489.5,40.5 Z" />
    </g>
    <g>
        <path style="" fill="#212121"
            d="M 503.5,40.5 C 505.833,40.8333 507.167,42.1667 507.5,44.5C 505.833,43.5 504.5,42.1667 503.5,40.5 Z" />
    </g>
    <g>
        <path style="" fill="#212121"
            d="M 655.5,39.5 C 649.472,39.0166 644.472,41.0166 640.5,45.5C 640.034,43.7988 640.034,42.2988 640.5,41C 644.181,40.1553 647.847,39.322 651.5,38.5C 653.045,38.5108 654.378,38.8442 655.5,39.5 Z" />
    </g>
    <g>
        <path style="" fill="#212121"
            d="M 701.5,39.5 C 701.573,41.0269 700.906,42.0269 699.5,42.5C 699.427,40.9731 700.094,39.9731 701.5,39.5 Z" />
    </g>
    <g>
        <path style="" fill="#212121"
            d="M 95.5,39.5 C 95.7709,41.3797 95.1042,42.713 93.5,43.5C 93.6596,41.847 94.3263,40.5137 95.5,39.5 Z" />
    </g>
    <g>
        <path style="" fill="#212121"
            d="M 173.5,31.5 C 173.534,34.1985 172.867,36.6985 171.5,39C 172.428,39.3879 173.095,40.0546 173.5,41C 172.599,45.1024 171.766,45.2691 171,41.5C 170.502,43.5444 169.335,44.8777 167.5,45.5C 169.324,40.6746 171.324,36.0079 173.5,31.5 Z" />
    </g>
    <g>
        <path style="" fill="#212121"
            d="M 316.5,37.5 C 317.156,38.6216 317.489,39.9549 317.5,41.5C 317.639,43.8825 316.972,45.8825 315.5,47.5C 316.207,44.2139 316.54,40.8806 316.5,37.5 Z" />
    </g>
    <g>
        <path style="" fill="#212121"
            d="M 521.5,30.5 C 529.465,35.1549 533.798,42.1549 534.5,51.5C 534.815,55.3714 534.482,59.0381 533.5,62.5C 533.666,57.4889 533.499,52.4889 533,47.5C 532.357,45.0698 530.857,43.4032 528.5,42.5C 527.82,40.1111 526.986,37.7778 526,35.5C 524.989,36.3366 523.822,36.67 522.5,36.5C 522.5,35.5 522.5,34.5 522.5,33.5C 522.443,32.391 522.11,31.391 521.5,30.5 Z" />
    </g>
    <g>
        <path style="" fill="#212121"
            d="M 37.5,38.5 C 38.4959,38.4142 39.3292,38.7476 40,39.5C 40.7958,42.0385 40.6291,44.3718 39.5,46.5C 39.8928,43.4867 39.2261,40.8201 37.5,38.5 Z" />
    </g>
    <g>
        <path style="" fill="#212121"
            d="M 484.5,43.5 C 484.833,43.5 485.167,43.5 485.5,43.5C 485.262,45.4044 484.262,46.7377 482.5,47.5C 482.733,45.9382 483.4,44.6049 484.5,43.5 Z" />
    </g>
    <g>
        <path style="" fill="#212121"
            d="M 663.5,44.5 C 665.048,44.8212 665.715,45.8212 665.5,47.5C 664.599,46.7095 663.932,45.7095 663.5,44.5 Z" />
    </g>
    <g>
        <path style="" fill="#212121"
            d="M 724.5,42.5 C 724.047,43.4584 723.381,44.2917 722.5,45C 723.252,45.6708 723.586,46.5041 723.5,47.5C 722.414,47.38 721.747,46.7133 721.5,45.5C 721.516,43.484 722.516,42.484 724.5,42.5 Z" />
    </g>
    <g>
        <path style="" fill="#212121"
            d="M 214.5,39.5 C 214.002,42.3263 212.669,44.6597 210.5,46.5C 211.079,43.6689 212.412,41.3356 214.5,39.5 Z" />
    </g>
    <g>
        <path style="" fill="#212121"
            d="M 309.5,33.5 C 312.276,34.0891 314.61,35.4224 316.5,37.5C 316.54,40.8806 316.207,44.2139 315.5,47.5C 312.736,48.2944 310.736,49.2944 309.5,50.5C 309.5,51.5 309.5,52.5 309.5,53.5C 308.185,54.4756 306.852,55.4756 305.5,56.5C 306.602,57.1757 307.602,57.8423 308.5,58.5C 307.325,58.281 306.325,58.6143 305.5,59.5C 308.457,60.5074 311.124,61.8408 313.5,63.5C 313.649,64.552 313.483,65.552 313,66.5C 310.317,68.0391 307.817,69.7058 305.5,71.5C 303.884,70.8848 302.551,69.8848 301.5,68.5C 299.18,64.8502 297.18,61.1835 295.5,57.5C 292.653,57.7824 289.987,57.7824 287.5,57.5C 293.258,54.4037 297.258,49.737 299.5,43.5C 300.842,46.3206 301.508,46.1539 301.5,43C 299.581,40.888 298.248,38.388 297.5,35.5C 301.278,32.9153 305.278,32.2486 309.5,33.5 Z" />
    </g>
    <g>
        <path style="" fill="#212121"
            d="M 426.5,24.5 C 426.5,35.8333 426.5,47.1667 426.5,58.5C 423.966,58.7409 422.3,57.7409 421.5,55.5C 422.708,56.2341 424.041,56.5674 425.5,56.5C 425.172,45.6536 425.506,34.9869 426.5,24.5 Z" />
    </g>
    <g>
        <path style="" fill="#212121"
            d="M 93.5,43.5 C 92.5023,47.5055 90.5023,50.8388 87.5,53.5C 89.0002,49.827 91.0002,46.4937 93.5,43.5 Z" />
    </g>
    <g>
        <path style="" fill="#212121"
            d="M 507.5,44.5 C 508.79,45.0577 509.623,46.0577 510,47.5C 510.497,49.8098 510.663,52.1432 510.5,54.5C 509.716,51.2047 508.716,47.8714 507.5,44.5 Z" />
    </g>
    <g>
        <path style="" fill="#212121"
            d="M 699.5,42.5 C 699.467,46.8689 699.8,51.2022 700.5,55.5C 696.891,51.4437 696.558,47.1104 699.5,42.5 Z" />
    </g>
    <g>
        <path style="" fill="#212121"
            d="M 234.5,45.5 C 236.677,48.52 238.343,51.8533 239.5,55.5C 236.862,53.5821 235.195,50.9154 234.5,47.5C 234.5,46.8333 234.5,46.1667 234.5,45.5 Z" />
    </g>
    <g>
        <path style="" fill="#212121"
            d="M 38.5,48.5 C 38.4431,49.609 38.1098,50.609 37.5,51.5C 36.8333,51.5 36.1667,51.5 35.5,51.5C 36.1667,50.1667 37.1667,49.1667 38.5,48.5 Z" />
    </g>
    <g>
        <path style="" fill="#212121"
            d="M 315.5,47.5 C 314.581,50.0892 312.914,52.0892 310.5,53.5C 310.167,53.5 309.833,53.5 309.5,53.5C 309.5,52.5 309.5,51.5 309.5,50.5C 310.736,49.2944 312.736,48.2944 315.5,47.5 Z" />
    </g>
    <g>
        <path style="" fill="#212121"
            d="M 461.5,41.5 C 461.66,43.1992 461.494,44.8659 461,46.5C 458.921,49.324 457.421,52.324 456.5,55.5C 456.599,50.198 458.266,45.5313 461.5,41.5 Z" />
    </g>
    <g>
        <path style="" fill="#212121"
            d="M 482.5,47.5 C 482.598,49.5529 481.931,51.2196 480.5,52.5C 480.5,51.5 480.5,50.5 480.5,49.5C 481.167,48.8333 481.833,48.1667 482.5,47.5 Z" />
    </g>
    <g>
        <path style="" fill="#212121"
            d="M 597.5,50.5 C 596.738,52.2624 595.404,53.2624 593.5,53.5C 594.598,52.603 594.598,51.7697 593.5,51C 594.793,50.51 596.127,50.3433 597.5,50.5 Z" />
    </g>
    <g>
        <path style="" fill="#212121"
            d="M 775.5,47.5 C 779.836,49.332 783.836,51.6654 787.5,54.5C 786.041,54.4326 784.708,54.7659 783.5,55.5C 783.489,53.9826 782.823,52.8159 781.5,52C 779.527,51.5045 777.527,51.3379 775.5,51.5C 775.5,50.1667 775.5,48.8333 775.5,47.5 Z" />
    </g>
    <g>
        <path style="" fill="#212121"
            d="M 108.5,55.5 C 107.391,55.5569 106.391,55.8902 105.5,56.5C 105.222,54.6536 105.889,53.3202 107.5,52.5C 108.386,53.325 108.719,54.325 108.5,55.5 Z" />
    </g>
    <g>
        <path style="" fill="#212121"
            d="M 575.5,37.5 C 577.017,37.5106 578.184,38.1772 579,39.5C 579.495,41.4727 579.662,43.4727 579.5,45.5C 579.2,49.9702 576.866,52.8035 572.5,54C 570.934,54.765 569.601,54.5983 568.5,53.5C 568.5,52.8333 568.5,52.1667 568.5,51.5C 569.222,51.9175 569.722,52.5842 570,53.5C 578.472,50.2542 580.306,44.9209 575.5,37.5 Z" />
    </g>
    <g>
        <path style="" fill="#212121"
            d="M 665.5,47.5 C 667.265,50.1226 667.932,53.1226 667.5,56.5C 666.525,53.6888 665.858,50.6888 665.5,47.5 Z" />
    </g>
    <g>
        <path style="" fill="#212121"
            d="M 790.5,27.5 C 792.489,31.4023 792.823,35.4023 791.5,39.5C 787.21,39.1977 783.21,39.8643 779.5,41.5C 778.739,42.3909 777.739,43.0576 776.5,43.5C 775.571,44.6888 775.238,46.0222 775.5,47.5C 775.5,48.8333 775.5,50.1667 775.5,51.5C 777.527,51.3379 779.527,51.5045 781.5,52C 782.823,52.8159 783.489,53.9826 783.5,55.5C 782.167,55.5 780.833,55.5 779.5,55.5C 779.5,56.8333 779.5,58.1667 779.5,59.5C 775.966,59.5317 772.799,59.1983 770,58.5C 768.915,59.2931 767.748,59.9598 766.5,60.5C 765.289,61.2739 765.289,62.1072 766.5,63C 768.813,63.662 771.146,64.162 773.5,64.5C 774.151,66.8257 774.818,69.1591 775.5,71.5C 774.599,74.158 773.266,76.658 771.5,79C 766.517,80.5681 761.517,80.7348 756.5,79.5C 756.647,84.3914 757.647,89.0581 759.5,93.5C 761.5,93.5 763.5,93.5 765.5,93.5C 765.5,93.8333 765.5,94.1667 765.5,94.5C 762.946,95.388 760.279,95.7214 757.5,95.5C 756.49,91.3855 755.49,87.3855 754.5,83.5C 754.5,81.8333 754.5,80.1667 754.5,78.5C 756.167,78.5 757.833,78.5 759.5,78.5C 762.495,78.7062 765.162,78.0395 767.5,76.5C 771.755,76.0773 773.589,73.7439 773,69.5C 772.184,68.1772 771.017,67.5106 769.5,67.5C 765.317,65.9125 761.65,63.5792 758.5,60.5C 758.5,60.1667 758.5,59.8333 758.5,59.5C 759.609,58.71 760.942,58.21 762.5,58C 761.542,56.8525 761.875,55.8525 763.5,55C 767.5,54.3333 771.5,53.6667 775.5,53C 771.971,50.6692 769.971,47.5025 769.5,43.5C 772.253,42.2864 774.92,40.7864 777.5,39C 781.152,38.5014 784.818,38.3347 788.5,38.5C 787.748,35.9097 786.748,33.4097 785.5,31C 786.484,29.18 786.317,27.68 785,26.5C 783.595,28.107 781.928,29.4403 780,30.5C 776.763,29.2028 773.93,29.8695 771.5,32.5C 772.167,33.1667 772.833,33.8333 773.5,34.5C 770.361,35.6028 767.194,35.6028 764,34.5C 760.934,35.0208 758.101,36.0208 755.5,37.5C 756.5,35.8333 757.833,34.5 759.5,33.5C 762.948,32.6099 765.948,30.9432 768.5,28.5C 772.962,27.8466 777.295,26.6799 781.5,25C 784.146,24.5026 786.813,24.3359 789.5,24.5C 789.263,25.791 789.596,26.791 790.5,27.5 Z" />
    </g>
    <g>
        <path style="" fill="#212121"
            d="M 55.5,53.5 C 55.0472,54.4584 54.3805,55.2917 53.5,56C 55.0931,56.9487 56.4264,58.1154 57.5,59.5C 54.7267,59.1882 52.3934,58.0216 50.5,56C 51.9003,54.5619 53.567,53.7286 55.5,53.5 Z" />
    </g>
    <g>
        <path style="" fill="#212121"
            d="M 281.5,55.5 C 286.467,56.6926 286.633,58.6926 282,61.5C 281.333,67.1667 281.333,72.8333 282,78.5C 282.934,79.8584 283.768,81.1917 284.5,82.5C 285.5,82.5 286.5,82.5 287.5,82.5C 290.254,83.0655 293.087,83.3989 296,83.5C 297,82.5 298,81.5 299,80.5C 299.056,77.2198 299.889,74.2198 301.5,71.5C 302.761,73.4534 303.927,75.4534 305,77.5C 308.219,73.5643 312.219,70.8976 317,69.5C 317.34,77.2141 313.84,82.3808 306.5,85C 307.252,85.6708 307.586,86.5041 307.5,87.5C 304.63,89.7943 301.297,91.1277 297.5,91.5C 294.813,91.3359 292.146,91.5026 289.5,92C 288.584,92.2784 287.918,92.7784 287.5,93.5C 286.833,93.5 286.167,93.5 285.5,93.5C 280.5,93.5 275.5,93.5 270.5,93.5C 270.5,92.1667 270.5,90.8333 270.5,89.5C 269.5,89.5 268.5,89.5 267.5,89.5C 266.5,72.8448 266.334,56.1781 267,39.5C 267.667,40.8333 268.333,40.8333 269,39.5C 269.142,52.8691 269.809,66.2024 271,79.5C 271.333,76.8333 271.667,74.1667 272,71.5C 273.628,72.0966 275.295,71.7633 277,70.5C 277.933,65.3089 279.433,60.3089 281.5,55.5 Z" />
    </g>
    <g>
        <path style="" fill="#212121"
            d="M 284.5,25.5 C 287.167,25.5 289.833,25.5 292.5,25.5C 292.611,26.1174 292.944,26.6174 293.5,27C 297.17,27.5482 300.837,28.0482 304.5,28.5C 304.833,28.5 305.167,28.5 305.5,28.5C 306.287,30.1042 307.62,30.7709 309.5,30.5C 309.5,31.5 309.5,32.5 309.5,33.5C 305.278,32.2486 301.278,32.9153 297.5,35.5C 298.248,38.388 299.581,40.888 301.5,43C 301.508,46.1539 300.842,46.3206 299.5,43.5C 297.258,49.737 293.258,54.4037 287.5,57.5C 289.987,57.7824 292.653,57.7824 295.5,57.5C 297.18,61.1835 299.18,64.8502 301.5,68.5C 302.551,69.8848 303.884,70.8848 305.5,71.5C 307.817,69.7058 310.317,68.0391 313,66.5C 313.483,65.552 313.649,64.552 313.5,63.5C 311.124,61.8408 308.457,60.5074 305.5,59.5C 306.325,58.6143 307.325,58.281 308.5,58.5C 311.688,59.9252 314.688,61.5919 317.5,63.5C 322.591,74.6844 319.257,82.6844 307.5,87.5C 307.586,86.5041 307.252,85.6708 306.5,85C 313.84,82.3808 317.34,77.2141 317,69.5C 312.219,70.8976 308.219,73.5643 305,77.5C 303.927,75.4534 302.761,73.4534 301.5,71.5C 299.889,74.2198 299.056,77.2198 299,80.5C 298,81.5 297,82.5 296,83.5C 293.087,83.3989 290.254,83.0655 287.5,82.5C 289.261,81.6873 290.928,80.6873 292.5,79.5C 294.833,79.1667 296.167,77.8333 296.5,75.5C 299.316,71.5587 298.65,68.0587 294.5,65C 293.207,64.51 291.873,64.3433 290.5,64.5C 288.735,63.5386 286.735,63.2053 284.5,63.5C 284.5,69.8333 284.5,76.1667 284.5,82.5C 283.768,81.1917 282.934,79.8584 282,78.5C 281.333,72.8333 281.333,67.1667 282,61.5C 286.633,58.6926 286.467,56.6926 281.5,55.5C 279.433,60.3089 277.933,65.3089 277,70.5C 275.295,71.7633 273.628,72.0966 272,71.5C 271.667,74.1667 271.333,76.8333 271,79.5C 269.809,66.2024 269.142,52.8691 269,39.5C 268.333,40.8333 267.667,40.8333 267,39.5C 266.334,56.1781 266.5,72.8448 267.5,89.5C 268.5,89.5 269.5,89.5 270.5,89.5C 270.5,90.8333 270.5,92.1667 270.5,93.5C 268.833,93.5 267.167,93.5 265.5,93.5C 265.5,88.8333 265.5,84.1667 265.5,79.5C 265.5,61.5 265.5,43.5 265.5,25.5C 271.833,25.5 278.167,25.5 284.5,25.5 Z M 294.5,47.5 C 292.326,50.5809 289.326,52.5809 285.5,53.5C 285.5,48.1667 285.5,42.8333 285.5,37.5C 292.661,36.9968 295.661,40.3301 294.5,47.5 Z M 290.5,64.5 C 295.924,66.3507 297.924,70.0174 296.5,75.5C 294.833,76.5 293.5,77.8333 292.5,79.5C 290.194,79.9926 287.861,80.3259 285.5,80.5C 285.5,75.1667 285.5,69.8333 285.5,64.5C 287.167,64.5 288.833,64.5 290.5,64.5 Z" />
    </g>
    <g>
        <path style="" fill="#212121"
            d="M 294.5,47.5 C 294.703,49.3904 294.037,50.8904 292.5,52C 290.045,53.3116 287.545,54.4782 285,55.5C 284.536,54.9056 284.369,54.2389 284.5,53.5C 284.833,53.5 285.167,53.5 285.5,53.5C 289.326,52.5809 292.326,50.5809 294.5,47.5 Z" />
    </g>
    <g>
        <path style="" fill="#212121"
            d="M 284.5,36.5 C 293.653,35.3072 296.986,38.9739 294.5,47.5C 295.661,40.3301 292.661,36.9968 285.5,37.5C 285.5,42.8333 285.5,48.1667 285.5,53.5C 285.167,53.5 284.833,53.5 284.5,53.5C 284.5,47.8333 284.5,42.1667 284.5,36.5 Z" />
    </g>
    <g>
        <path style="" fill="#212121"
            d="M 284.5,36.5 C 281.679,36.5387 279.012,37.2054 276.5,38.5C 277.736,39.3567 279.069,40.0234 280.5,40.5C 281.304,45.6081 281.637,50.6081 281.5,55.5C 279.488,54.9862 277.488,54.8195 275.5,55C 275.001,58.3494 274.001,61.516 272.5,64.5C 271.501,52.1847 271.168,39.8513 271.5,27.5C 279.585,27.0989 287.585,27.5989 295.5,29C 293.103,30.7183 290.436,31.8849 287.5,32.5C 286.174,33.6422 285.174,34.9755 284.5,36.5 Z" />
    </g>
    <g>
        <path style="" fill="#212121"
            d="M 383.5,27.5 C 388.052,30.6025 392.386,33.9358 396.5,37.5C 393.221,36.5078 389.888,36.3412 386.5,37C 386.167,38 385.833,39 385.5,40C 384.451,40.4922 383.451,40.3256 382.5,39.5C 379.286,56.7425 376.952,74.0758 375.5,91.5C 379.514,91.6655 383.514,91.4988 387.5,91C 388.833,90.3333 389.833,89.3333 390.5,88C 389.685,80.9133 389.185,73.7466 389,66.5C 386.915,65.3531 385.415,66.0197 384.5,68.5C 383.526,66.2573 383.192,63.924 383.5,61.5C 388.189,62.3163 390.689,60.3163 391,55.5C 392.938,54.1398 394.604,54.4732 396,56.5C 397.629,58.7375 399.129,61.0708 400.5,63.5C 399.833,63.5 399.167,63.5 398.5,63.5C 396.973,63.573 395.973,62.9063 395.5,61.5C 394.791,60.596 393.791,60.2627 392.5,60.5C 392.5,71.5 392.5,82.5 392.5,93.5C 387.167,93.5 381.833,93.5 376.5,93.5C 375.833,93.5 375.167,93.5 374.5,93.5C 374.5,85.5 374.5,77.5 374.5,69.5C 374.303,63.4549 374.637,57.4549 375.5,51.5C 376.59,42.9917 377.59,34.3251 378.5,25.5C 380.075,26.4565 381.742,27.1231 383.5,27.5 Z" />
    </g>
    <g>
        <path style="" fill="#212121"
            d="M 751.5,52.5 C 753.417,55.0842 755.751,57.4176 758.5,59.5C 758.5,59.8333 758.5,60.1667 758.5,60.5C 754.764,59.0953 752.431,56.4287 751.5,52.5 Z" />
    </g>
    <g>
        <path style="" fill="#212121"
            d="M 108.5,55.5 C 110.048,55.8212 110.715,56.8212 110.5,58.5C 109.094,58.0269 108.427,57.0269 108.5,55.5 Z" />
    </g>
    <g>
        <path style="" fill="#212121"
            d="M 207.5,51.5 C 207.13,54.267 205.796,56.267 203.5,57.5C 204.34,55.1475 205.674,53.1475 207.5,51.5 Z" />
    </g>
    <g>
        <path style="" fill="#212121"
            d="M 445.5,26.5 C 445.672,27.4916 445.338,28.1583 444.5,28.5C 443.25,28.4226 442.417,27.756 442,26.5C 439.899,27.6145 437.733,27.6145 435.5,26.5C 433.61,27.6123 431.61,28.4456 429.5,29C 430.035,31.1087 431.035,31.6087 432.5,30.5C 433.925,34.1306 433.425,37.4639 431,40.5C 430.667,39.8333 430.333,39.1667 430,38.5C 429.333,44.1667 429.333,49.8333 430,55.5C 430.654,54.3044 431.154,54.3044 431.5,55.5C 429.771,57.8511 429.104,60.5178 429.5,63.5C 424.041,63.8967 418.708,63.3967 413.5,62C 414.227,59.876 414.894,57.7094 415.5,55.5C 414.992,53.0958 413.825,52.4291 412,53.5C 406.442,51.121 402.942,47.121 401.5,41.5C 408.425,45.7521 415.092,50.4188 421.5,55.5C 422.3,57.7409 423.966,58.7409 426.5,58.5C 426.5,47.1667 426.5,35.8333 426.5,24.5C 431.316,23.3503 436.316,23.1837 441.5,24C 443.437,24.1216 444.77,24.955 445.5,26.5 Z" />
    </g>
    <g>
        <path style="" fill="#212121"
            d="M 534.5,51.5 C 535.645,55.3112 535.812,59.3112 535,63.5C 534.844,66.1909 534.011,68.5242 532.5,70.5C 532.833,67.8333 533.167,65.1667 533.5,62.5C 534.482,59.0381 534.815,55.3714 534.5,51.5 Z" />
    </g>
    <g>
        <path style="" fill="#212121"
            d="M 787.5,54.5 C 790.888,55.3481 793.221,57.3481 794.5,60.5C 791.81,58.844 789.477,56.844 787.5,54.5 Z" />
    </g>
    <g>
        <path style="" fill="#212121"
            d="M 86.5,55.5 C 86.573,57.0269 85.9063,58.0269 84.5,58.5C 84.427,56.9731 85.0937,55.9731 86.5,55.5 Z" />
    </g>
    <g>
        <path style="" fill="#212121"
            d="M 117.5,35.5 C 122.886,42.8916 127.886,50.5583 132.5,58.5C 132.427,60.0269 133.094,61.0269 134.5,61.5C 134.427,63.0269 135.094,64.0269 136.5,64.5C 136.427,66.0269 137.094,67.0269 138.5,67.5C 138.427,69.0269 139.094,70.0269 140.5,70.5C 139.916,73.285 140.916,74.9517 143.5,75.5C 144.08,77.7488 145.413,79.4154 147.5,80.5C 147.678,81.6948 148.011,82.8615 148.5,84C 147.571,85.0769 146.904,86.2436 146.5,87.5C 146.158,88.3382 145.492,88.6716 144.5,88.5C 144.923,87.7354 145.257,86.9021 145.5,86C 143.771,83.3735 142.437,80.5402 141.5,77.5C 139.954,76.316 138.287,75.316 136.5,74.5C 136.709,73.914 137.043,73.414 137.5,73C 132.297,66.9194 128.297,60.0861 125.5,52.5C 123.765,51.943 122.098,51.6097 120.5,51.5C 119.833,52.5 119.167,53.5 118.5,54.5C 117.288,52.164 117.621,49.9973 119.5,48C 118.454,43.8899 117.787,39.7232 117.5,35.5 Z" />
    </g>
    <g>
        <path style="" fill="#212121"
            d="M 203.5,57.5 C 202.86,60.6822 201.86,61.0155 200.5,58.5C 201.609,58.4431 202.609,58.1098 203.5,57.5 Z" />
    </g>
    <g>
        <path style="" fill="#212121"
            d="M 309.5,53.5 C 309.833,53.5 310.167,53.5 310.5,53.5C 310.047,54.4584 309.381,55.2917 308.5,56C 311.94,58.0421 314.94,60.5421 317.5,63.5C 314.688,61.5919 311.688,59.9252 308.5,58.5C 307.602,57.8423 306.602,57.1757 305.5,56.5C 306.852,55.4756 308.185,54.4756 309.5,53.5 Z" />
    </g>
    <g>
        <path style="" fill="#212121"
            d="M 589.5,55.5 C 589.833,55.5 590.167,55.5 590.5,55.5C 590.833,55.5 591.167,55.5 591.5,55.5C 592.984,57.0737 594.651,58.407 596.5,59.5C 593.318,59.416 590.985,58.0827 589.5,55.5 Z" />
    </g>
    <g>
        <path style="" fill="#212121"
            d="M 167.5,46.5 C 166.038,51.3966 164.871,56.3966 164,61.5C 161.548,64.7611 159.381,68.0944 157.5,71.5C 160.459,62.9434 163.792,54.61 167.5,46.5 Z" />
    </g>
    <g>
        <path style="" fill="#212121"
            d="M 700.5,55.5 C 705.149,57.7016 709.816,60.2016 714.5,63C 713.748,63.6708 713.414,64.5041 713.5,65.5C 710.06,63.9451 706.727,62.1118 703.5,60C 701.859,58.871 700.859,57.371 700.5,55.5 Z" />
    </g>
    <g>
        <path style="" fill="#212121"
            d="M 725.5,49.5 C 733.25,51.6077 739.25,55.9411 743.5,62.5C 743.5,62.8333 743.5,63.1667 743.5,63.5C 740.663,65.1723 739.996,64.5056 741.5,61.5C 739.993,60.2612 738.826,60.5946 738,62.5C 735.863,60.6789 735.03,58.3456 735.5,55.5C 731.75,54.2996 728.083,52.7996 724.5,51C 725.056,50.6174 725.389,50.1174 725.5,49.5 Z" />
    </g>
    <g>
        <path style="" fill="#212121"
            d="M 110.5,58.5 C 112.759,59.344 113.759,61.0107 113.5,63.5C 113.167,63.5 112.833,63.5 112.5,63.5C 111.463,62.0697 110.796,60.403 110.5,58.5 Z" />
    </g>
    <g>
        <path style="" fill="#212121"
            d="M 132.5,58.5 C 133.906,58.9731 134.573,59.9731 134.5,61.5C 133.094,61.0269 132.427,60.0269 132.5,58.5 Z" />
    </g>
    <g>
        <path style="" fill="#212121"
            d="M 639.5,47.5 C 637.643,52.6352 636.643,57.9686 636.5,63.5C 635.356,58.7425 635.689,53.9092 637.5,49C 637.836,47.9701 638.503,47.4701 639.5,47.5 Z" />
    </g>
    <g>
        <path style="" fill="#212121"
            d="M 84.5,58.5 C 84.7271,60.9328 83.7271,62.5994 81.5,63.5C 82.1103,61.5659 83.1103,59.8993 84.5,58.5 Z" />
    </g>
    <g>
        <path style="" fill="#212121"
            d="M 615.5,46.5 C 613.717,54.6876 613.05,63.0209 613.5,71.5C 611.025,65.0419 610.858,58.3752 613,51.5C 613.374,49.5087 614.207,47.842 615.5,46.5 Z" />
    </g>
    <g>
        <path style="" fill="#212121"
            d="M 787.5,54.5 C 789.477,56.844 791.81,58.844 794.5,60.5C 797.402,63.8272 798.069,67.4938 796.5,71.5C 794.235,73.8914 792.235,76.5581 790.5,79.5C 789.009,80.2436 787.509,80.9103 786,81.5C 785.415,83.6614 784.582,85.6614 783.5,87.5C 783.158,88.3382 782.492,88.6716 781.5,88.5C 779.447,88.4021 777.78,89.0687 776.5,90.5C 775.22,91.9313 773.553,92.5979 771.5,92.5C 769.265,92.2053 767.265,92.5386 765.5,93.5C 763.5,93.5 761.5,93.5 759.5,93.5C 757.647,89.0581 756.647,84.3914 756.5,79.5C 761.517,80.7348 766.517,80.5681 771.5,79C 773.266,76.658 774.599,74.158 775.5,71.5C 774.818,69.1591 774.151,66.8257 773.5,64.5C 771.146,64.162 768.813,63.662 766.5,63C 765.289,62.1072 765.289,61.2739 766.5,60.5C 767.748,59.9598 768.915,59.2931 770,58.5C 772.799,59.1983 775.966,59.5317 779.5,59.5C 779.5,58.1667 779.5,56.8333 779.5,55.5C 780.833,55.5 782.167,55.5 783.5,55.5C 784.708,54.7659 786.041,54.4326 787.5,54.5 Z" />
    </g>
    <g>
        <path style="" fill="#212121"
            d="M 134.5,61.5 C 135.906,61.9731 136.573,62.9731 136.5,64.5C 135.094,64.0269 134.427,63.0269 134.5,61.5 Z" />
    </g>
    <g>
        <path style="" fill="#212121"
            d="M 510.5,55.5 C 511.16,56.964 511.493,58.6307 511.5,60.5C 511.684,63.2046 511.017,65.5379 509.5,67.5C 510.021,63.5191 510.354,59.5191 510.5,55.5 Z" />
    </g>
    <g>
        <path style="" fill="#212121"
            d="M 185.5,71.5 C 183.684,69.8816 182.351,67.8816 181.5,65.5C 180.833,62.8333 180.167,62.8333 179.5,65.5C 179.405,67.7857 178.738,69.7857 177.5,71.5C 178.051,68.1933 178.384,64.8599 178.5,61.5C 180.995,62.1989 183.328,63.1989 185.5,64.5C 185.5,66.8333 185.5,69.1667 185.5,71.5 Z" />
    </g>
    <g>
        <path style="" fill="#212121"
            d="M 181.5,65.5 C 180.833,65.5 180.167,65.5 179.5,65.5C 180.167,62.8333 180.833,62.8333 181.5,65.5 Z" />
    </g>
    <g>
        <path style="" fill="#212121"
            d="M 290.5,64.5 C 291.873,64.3433 293.207,64.51 294.5,65C 298.65,68.0587 299.316,71.5587 296.5,75.5C 297.924,70.0174 295.924,66.3507 290.5,64.5 Z" />
    </g>
    <g>
        <path style="" fill="#212121"
            d="M 455.5,64.5 C 457.06,66.1561 458.06,68.1561 458.5,70.5C 458.5,72.1667 458.5,73.8333 458.5,75.5C 456.63,72.1912 455.63,68.5246 455.5,64.5 Z" />
    </g>
    <g>
        <path style="" fill="#212121"
            d="M 136.5,64.5 C 137.906,64.9731 138.573,65.9731 138.5,67.5C 137.094,67.0269 136.427,66.0269 136.5,64.5 Z" />
    </g>
    <g>
        <path style="" fill="#212121"
            d="M 223.5,69.5 C 222.356,67.8998 221.189,66.2331 220,64.5C 219.617,65.056 219.117,65.3893 218.5,65.5C 219.183,63.8235 220.517,63.1568 222.5,63.5C 222.833,65.5 223.167,67.5 223.5,69.5 Z" />
    </g>
    <g>
        <path style="" fill="#212121"
            d="M 398.5,63.5 C 399.167,63.5 399.833,63.5 400.5,63.5C 405.021,65.0126 408.354,68.0126 410.5,72.5C 405.929,70.2624 401.929,67.2624 398.5,63.5 Z" />
    </g>
    <g>
        <path style="" fill="#212121"
            d="M 743.5,62.5 C 744.38,64.1368 745.046,65.9701 745.5,68C 745.43,68.7648 745.097,69.2648 744.5,69.5C 743.85,67.5648 743.517,65.5648 743.5,63.5C 743.5,63.1667 743.5,62.8333 743.5,62.5 Z" />
    </g>
    <g>
        <path style="" fill="#212121"
            d="M 103.5,60.5 C 102.833,62.8333 102.167,65.1667 101.5,67.5C 104.518,67.6646 107.518,67.498 110.5,67C 111.973,66.2904 112.64,65.1238 112.5,63.5C 112.833,63.5 113.167,63.5 113.5,63.5C 114.038,65.1172 114.371,66.7839 114.5,68.5C 109.456,68.8275 104.456,68.4941 99.5,67.5C 100.112,64.5672 101.445,62.2339 103.5,60.5 Z" />
    </g>
    <g>
        <path style="" fill="#212121"
            d="M 443.5,40.5 C 443.5,45.5 443.5,50.5 443.5,55.5C 443.5,58.1667 443.5,60.8333 443.5,63.5C 442.22,73.6426 441.553,83.9759 441.5,94.5C 440.279,95.4646 438.946,95.298 437.5,94C 434.58,92.0539 431.913,89.8872 429.5,87.5C 432.721,87.9819 436.054,87.9819 439.5,87.5C 440.002,72.8199 440.836,58.1532 442,43.5C 442.232,42.2625 442.732,41.2625 443.5,40.5 Z" />
    </g>
    <g>
        <path style="" fill="#212121"
            d="M 138.5,67.5 C 139.906,67.9731 140.573,68.9731 140.5,70.5C 139.094,70.0269 138.427,69.0269 138.5,67.5 Z" />
    </g>
    <g>
        <path style="" fill="#212121"
            d="M 290.5,64.5 C 288.833,64.5 287.167,64.5 285.5,64.5C 285.5,69.8333 285.5,75.1667 285.5,80.5C 287.861,80.3259 290.194,79.9926 292.5,79.5C 290.928,80.6873 289.261,81.6873 287.5,82.5C 286.5,82.5 285.5,82.5 284.5,82.5C 284.5,76.1667 284.5,69.8333 284.5,63.5C 286.735,63.2053 288.735,63.5386 290.5,64.5 Z" />
    </g>
    <g>
        <path style="" fill="#212121"
            d="M 81.5,63.5 C 80.5515,66.1402 79.5515,68.8069 78.5,71.5C 77.8333,71.5 77.1667,71.5 76.5,71.5C 77.6803,68.4604 79.347,65.7937 81.5,63.5 Z" />
    </g>
    <g>
        <path style="" fill="#212121"
            d="M 479.5,61.5 C 480.434,64.6557 481.101,67.9891 481.5,71.5C 480.778,71.0825 480.278,70.4158 480,69.5C 479.503,66.854 479.336,64.1873 479.5,61.5 Z" />
    </g>
    <g>
        <path style="" fill="#212121"
            d="M 63.5,67.5 C 64.3058,68.9972 64.9724,70.6639 65.5,72.5C 64.9724,74.3361 64.3058,76.0028 63.5,77.5C 63.5,74.1667 63.5,70.8333 63.5,67.5 Z" />
    </g>
    <g>
        <path style="" fill="#212121"
            d="M 216.5,68.5 C 216.573,70.0269 215.906,71.0269 214.5,71.5C 214.427,69.9731 215.094,68.9731 216.5,68.5 Z" />
    </g>
    <g>
        <path style="" fill="#212121"
            d="M 239.5,55.5 C 242.128,61.4316 244.795,67.4316 247.5,73.5C 245.553,72.5266 243.553,71.5266 241.5,70.5C 243.086,67.7837 242.753,65.4503 240.5,63.5C 239.52,60.9135 239.187,58.2469 239.5,55.5 Z" />
    </g>
    <g>
        <path style="" fill="#212121"
            d="M 509.5,67.5 C 509.843,69.4832 509.176,70.8166 507.5,71.5C 507.66,69.847 508.326,68.5137 509.5,67.5 Z" />
    </g>
    <g>
        <path style="" fill="#212121"
            d="M 636.5,63.5 C 637.489,66.7263 638.489,70.0596 639.5,73.5C 638.25,73.4226 637.417,72.756 637,71.5C 636.503,68.854 636.336,66.1873 636.5,63.5 Z" />
    </g>
    <g>
        <path style="" fill="#212121"
            d="M 769.5,67.5 C 771.017,67.5106 772.184,68.1772 773,69.5C 773.589,73.7439 771.755,76.0773 767.5,76.5C 769.27,75.236 770.937,73.736 772.5,72C 771.614,70.3853 770.614,68.8853 769.5,67.5 Z" />
    </g>
    <g>
        <path style="" fill="#212121"
            d="M 410.5,72.5 C 412.749,73.0798 414.415,74.4131 415.5,76.5C 413.251,75.9202 411.585,74.5869 410.5,72.5 Z" />
    </g>
    <g>
        <path style="" fill="#212121"
            d="M 613.5,71.5 C 614.708,72.2341 616.041,72.5674 617.5,72.5C 617.5,74.8333 617.5,77.1667 617.5,79.5C 615.127,77.4208 613.794,74.7541 613.5,71.5 Z" />
    </g>
    <g>
        <path style="" fill="#212121"
            d="M 58.5,39.5 C 59.9468,40.1342 60.6134,41.3009 60.5,43C 59.9233,45.137 59.59,47.3037 59.5,49.5C 58.5,51.1667 57.1667,52.5 55.5,53.5C 53.567,53.7286 51.9003,54.5619 50.5,56C 52.3934,58.0216 54.7267,59.1882 57.5,59.5C 60.6472,61.3129 62.6472,63.9796 63.5,67.5C 63.5,70.8333 63.5,74.1667 63.5,77.5C 62.1667,78.1667 60.8333,78.8333 59.5,79.5C 59.2837,77.3193 60.117,75.6526 62,74.5C 62.4966,72.1902 62.6633,69.8568 62.5,67.5C 61.0222,67.762 59.6888,67.4287 58.5,66.5C 56.9776,64.8437 57.311,63.677 59.5,63C 56.9234,61.7496 54.2567,61.4163 51.5,62C 49.9055,64.8141 48.7388,67.6474 48,70.5C 48.3333,70.8333 48.6667,71.1667 49,71.5C 51.6403,67.2986 55.1403,66.4653 59.5,69C 55.6714,71.3045 52.1714,74.1378 49,77.5C 48.0766,76.2412 47.2432,74.9079 46.5,73.5C 44.6944,76.472 42.6944,79.3053 40.5,82C 35.4369,82.0017 32.1036,84.335 30.5,89C 25.8098,89.3317 21.1431,88.9983 16.5,88C 14.4963,85.1592 13.9963,81.9926 15,78.5C 15.3333,79.5 15.6667,80.5 16,81.5C 18.0937,79.0787 19.7604,76.412 21,73.5C 21.0657,76.2756 22.2324,78.4423 24.5,80C 23.2234,82.4659 23.2234,84.9659 24.5,87.5C 25.4255,88.6405 26.2588,88.6405 27,87.5C 27.6012,85.8632 28.1012,84.1966 28.5,82.5C 27.4054,75.5307 27.2387,68.5307 28,61.5C 31.3604,58.5532 35.1937,56.8865 39.5,56.5C 43.2007,56.8051 45.534,55.1384 46.5,51.5C 47.1667,52.5 47.8333,53.5 48.5,54.5C 50.0152,52.4527 50.8485,50.1193 51,47.5C 52.5827,47.493 54.2494,47.8263 56,48.5C 57.903,45.8294 58.7363,42.8294 58.5,39.5 Z M 35.5,64.5 C 36.5137,65.6737 37.847,66.3404 39.5,66.5C 42.1667,70.1667 42.1667,73.8333 39.5,77.5C 37.7697,78.0256 36.4363,79.0256 35.5,80.5C 35.1667,80.5 34.8333,80.5 34.5,80.5C 33.1667,80.5 31.8333,80.5 30.5,80.5C 30.5,75.1667 30.5,69.8333 30.5,64.5C 32.1667,64.5 33.8333,64.5 35.5,64.5 Z" />
    </g>
    <g>
        <path style="" fill="#212121"
            d="M 35.5,64.5 C 33.8333,64.5 32.1667,64.5 30.5,64.5C 30.5,69.8333 30.5,75.1667 30.5,80.5C 31.8333,80.5 33.1667,80.5 34.5,80.5C 33.3646,82.2132 31.698,82.8799 29.5,82.5C 29.5,76.1667 29.5,69.8333 29.5,63.5C 31.7354,63.2053 33.7354,63.5386 35.5,64.5 Z" />
    </g>
    <g>
        <path style="" fill="#212121"
            d="M 39.5,66.5 C 40.4959,66.4142 41.3292,66.7476 42,67.5C 42.6667,70.1667 42.6667,72.8333 42,75.5C 41.5831,76.756 40.7498,77.4226 39.5,77.5C 42.1667,73.8333 42.1667,70.1667 39.5,66.5 Z" />
    </g>
    <g>
        <path style="" fill="#212121"
            d="M 140.5,70.5 C 142.262,71.2623 143.262,72.5956 143.5,74.5C 143.5,74.8333 143.5,75.1667 143.5,75.5C 140.916,74.9517 139.916,73.285 140.5,70.5 Z" />
    </g>
    <g>
        <path style="" fill="#212121"
            d="M 481.5,71.5 C 482.906,71.9731 483.573,72.9731 483.5,74.5C 482.094,74.0269 481.427,73.0269 481.5,71.5 Z" />
    </g>
    <g>
        <path style="" fill="#212121"
            d="M 664.5,71.5 C 664.573,73.0269 663.906,74.0269 662.5,74.5C 662.427,72.9731 663.094,71.9731 664.5,71.5 Z" />
    </g>
    <g>
        <path style="" fill="#212121"
            d="M 507.5,71.5 C 507.631,74.3667 506.297,76.0334 503.5,76.5C 504.864,74.8089 506.197,73.1423 507.5,71.5 Z" />
    </g>
    <g>
        <path style="" fill="#212121"
            d="M 532.5,71.5 C 531,75.173 529,78.5063 526.5,81.5C 526.328,79.5082 526.995,77.8415 528.5,76.5C 527.391,74.7859 528.058,74.1192 530.5,74.5C 530.285,72.8212 530.952,71.8212 532.5,71.5 Z" />
    </g>
    <g>
        <path style="" fill="#212121"
            d="M 639.5,73.5 C 641.167,74.5 642.5,75.8333 643.5,77.5C 641.167,77.1667 639.833,75.8333 639.5,73.5 Z" />
    </g>
    <g>
        <path style="" fill="#212121"
            d="M 715.5,66.5 C 719.104,67.5877 720.937,69.921 721,73.5C 718.349,76.076 715.182,77.4093 711.5,77.5C 713.986,76.3376 716.486,75.0042 719,73.5C 719.667,72.5 719.667,71.5 719,70.5C 717.624,69.2949 716.458,67.9616 715.5,66.5 Z" />
    </g>
    <g>
        <path style="" fill="#212121"
            d="M 185.5,71.5 C 187.257,72.292 188.591,73.6253 189.5,75.5C 190.192,74.9747 190.692,74.3081 191,73.5C 191.497,75.8098 191.663,78.1432 191.5,80.5C 188.769,78.0536 186.769,75.0536 185.5,71.5 Z" />
    </g>
    <g>
        <path style="" fill="#212121"
            d="M 223.5,69.5 C 225.267,71.7916 226.267,74.4582 226.5,77.5C 224.733,75.2084 223.733,72.5418 223.5,69.5 Z" />
    </g>
    <g>
        <path style="" fill="#212121"
            d="M 688.5,42.5 C 695.028,58.8017 692.028,73.3017 679.5,86C 678.906,86.4643 678.239,86.631 677.5,86.5C 677.167,83.5 678.5,82.1667 681.5,82.5C 682.545,78.7406 683.878,75.0739 685.5,71.5C 686.5,71.5 687.5,71.5 688.5,71.5C 689.306,66.0263 689.972,60.5263 690.5,55C 690.143,50.7704 689.477,46.6037 688.5,42.5 Z" />
    </g>
    <g>
        <path style="" fill="#212121"
            d="M 661.5,75.5 C 660.599,77.7271 658.933,78.7271 656.5,78.5C 657.899,77.1103 659.566,76.1103 661.5,75.5 Z" />
    </g>
    <g>
        <path style="" fill="#212121"
            d="M 76.5,71.5 C 75.8486,74.803 74.182,77.4697 71.5,79.5C 72.6693,76.4887 74.336,73.822 76.5,71.5 Z" />
    </g>
    <g>
        <path style="" fill="#212121"
            d="M 248.5,76.5 C 249.674,77.5137 250.34,78.847 250.5,80.5C 248.896,79.713 248.229,78.3797 248.5,76.5 Z" />
    </g>
    <g>
        <path style="" fill="#212121"
            d="M 296.5,75.5 C 296.167,77.8333 294.833,79.1667 292.5,79.5C 293.5,77.8333 294.833,76.5 296.5,75.5 Z" />
    </g>
    <g>
        <path style="" fill="#212121"
            d="M 483.5,74.5 C 485.537,75.8465 487.537,77.1798 489.5,78.5C 489.5,78.8333 489.5,79.1667 489.5,79.5C 486.13,79.3712 484.13,77.7046 483.5,74.5 Z" />
    </g>
    <g>
        <path style="" fill="#212121"
            d="M 767.5,76.5 C 765.162,78.0395 762.495,78.7062 759.5,78.5C 761.905,77.2318 764.572,76.5651 767.5,76.5 Z" />
    </g>
    <g>
        <path style="" fill="#212121"
            d="M 39.5,77.5 C 38.9653,79.4456 37.632,80.4456 35.5,80.5C 36.4363,79.0256 37.7697,78.0256 39.5,77.5 Z" />
    </g>
    <g>
        <path style="" fill="#212121"
            d="M 143.5,74.5 C 145.218,76.2228 146.551,78.2228 147.5,80.5C 145.413,79.4154 144.08,77.7488 143.5,75.5C 143.5,75.1667 143.5,74.8333 143.5,74.5 Z" />
    </g>
    <g>
        <path style="" fill="#212121"
            d="M 503.5,76.5 C 503.119,77.9311 502.119,78.7645 500.5,79C 496.848,79.4986 493.182,79.6653 489.5,79.5C 489.5,79.1667 489.5,78.8333 489.5,78.5C 494.362,78.8824 499.028,78.2157 503.5,76.5 Z" />
    </g>
    <g>
        <path style="" fill="#212121"
            d="M 643.5,77.5 C 647.785,78.2949 652.119,78.6282 656.5,78.5C 654.866,79.1611 653.033,79.4944 651,79.5C 648.134,79.7001 645.634,79.0334 643.5,77.5 Z" />
    </g>
    <g>
        <path style="" fill="#212121"
            d="M 415.5,76.5 C 419.523,77.5156 422.523,79.8489 424.5,83.5C 421.208,81.5419 418.208,79.2085 415.5,76.5 Z" />
    </g>
    <g>
        <path style="" fill="#212121"
            d="M 589.5,55.5 C 590.985,58.0827 593.318,59.416 596.5,59.5C 603.042,63.3943 605.208,69.061 603,76.5C 598.956,83.9419 592.79,88.6085 584.5,90.5C 584.611,89.8826 584.944,89.3826 585.5,89C 583.956,88.7104 582.623,88.0437 581.5,87C 583.878,86.0255 583.544,85.3589 580.5,85C 581.337,83.9887 581.67,82.8221 581.5,81.5C 578.833,81.5 576.167,81.5 573.5,81.5C 572.192,82.2323 570.858,83.0656 569.5,84C 570.624,84.2492 571.624,84.7492 572.5,85.5C 572.167,85.8333 571.833,86.1667 571.5,86.5C 570.205,85.9017 568.872,85.4017 567.5,85C 567.957,84.586 568.291,84.086 568.5,83.5C 564.086,75.3148 563.919,66.9815 568,58.5C 569.049,57.4829 570.216,57.3162 571.5,58C 575.252,60.2933 579.086,62.4599 583,64.5C 583.667,65.5 583.667,66.5 583,67.5C 582.465,65.7295 581.631,65.3961 580.5,66.5C 582.715,70.4845 583.048,74.6512 581.5,79C 584.479,80.6116 585.812,83.1116 585.5,86.5C 587.167,86.5 588.833,86.5 590.5,86.5C 590.5,85.5 590.5,84.5 590.5,83.5C 593.005,83.0198 595.338,82.0198 597.5,80.5C 602.731,72.19 601.231,65.5234 593,60.5C 592.667,61.1667 592.333,61.8333 592,62.5C 591.581,61.3279 590.915,60.3279 590,59.5C 589.333,60.8333 588.667,60.8333 588,59.5C 587.156,57.5372 587.656,56.2039 589.5,55.5 Z M 574.5,64.5 C 579.855,66.2035 581.855,69.8701 580.5,75.5C 578.809,76.8637 577.142,78.197 575.5,79.5C 574.508,79.3284 573.842,79.6618 573.5,80.5C 572.167,80.5 570.833,80.5 569.5,80.5C 569.737,79.209 569.404,78.209 568.5,77.5C 568.837,73.9889 568.837,70.6556 568.5,67.5C 569.404,66.791 569.737,65.791 569.5,64.5C 571.167,64.5 572.833,64.5 574.5,64.5 Z" />
    </g>
    <g>
        <path style="" fill="#212121"
            d="M 580.5,75.5 C 580.033,78.2974 578.367,79.6308 575.5,79.5C 577.142,78.197 578.809,76.8637 580.5,75.5 Z" />
    </g>
    <g>
        <path style="" fill="#212121"
            d="M 574.5,64.5 C 572.833,64.5 571.167,64.5 569.5,64.5C 569.737,65.791 569.404,66.791 568.5,67.5C 568.5,66.1667 568.5,64.8333 568.5,63.5C 570.735,63.2053 572.735,63.5386 574.5,64.5 Z" />
    </g>
    <g>
        <path style="" fill="#212121"
            d="M 63.5,77.5 C 60.1905,84.1362 54.8572,88.1362 47.5,89.5C 47.5569,88.391 47.8902,87.391 48.5,86.5C 50.5914,86.6816 52.5914,86.3482 54.5,85.5C 55.3857,84.675 55.719,83.675 55.5,82.5C 56.552,82.6495 57.552,82.4828 58.5,82C 57.434,80.841 57.7673,80.0076 59.5,79.5C 60.8333,78.8333 62.1667,78.1667 63.5,77.5 Z" />
    </g>
    <g>
        <path style="" fill="#212121"
            d="M 226.5,77.5 C 229.684,81.5379 231.351,86.2045 231.5,91.5C 229.313,87.1046 227.646,82.4379 226.5,77.5 Z" />
    </g>
    <g>
        <path style="" fill="#212121"
            d="M 568.5,77.5 C 569.404,78.209 569.737,79.209 569.5,80.5C 570.833,80.5 572.167,80.5 573.5,80.5C 573.5,80.8333 573.5,81.1667 573.5,81.5C 571.833,81.5 570.167,81.5 568.5,81.5C 568.5,80.1667 568.5,78.8333 568.5,77.5 Z" />
    </g>
    <g>
        <path style="" fill="#212121"
            d="M 703.5,78.5 C 702.597,81.3915 702.264,84.3915 702.5,87.5C 701.842,86.2067 701.508,84.7067 701.5,83C 701.569,81.0145 702.235,79.5145 703.5,78.5 Z" />
    </g>
    <g>
        <path style="" fill="#212121"
            d="M 796.5,71.5 C 795.009,79.1523 790.675,84.4856 783.5,87.5C 784.582,85.6614 785.415,83.6614 786,81.5C 787.509,80.9103 789.009,80.2436 790.5,79.5C 792.235,76.5581 794.235,73.8914 796.5,71.5 Z" />
    </g>
    <g>
        <path style="" fill="#212121"
            d="M 114.5,82.5 C 114.5,82.1667 114.5,81.8333 114.5,81.5C 117.5,81.5 120.5,81.5 123.5,81.5C 123.5,82.5 123.5,83.5 123.5,84.5C 120.855,82.7581 117.855,82.0914 114.5,82.5 Z" />
    </g>
    <g>
        <path style="" fill="#212121"
            d="M 191.5,81.5 C 193.796,82.733 195.13,84.733 195.5,87.5C 193.684,85.8816 192.351,83.8816 191.5,81.5 Z" />
    </g>
    <g>
        <path style="" fill="#212121"
            d="M 460.5,79.5 C 462.446,80.0347 463.446,81.368 463.5,83.5C 462.026,82.5637 461.026,81.2303 460.5,79.5 Z" />
    </g>
    <g>
        <path style="" fill="#212121"
            d="M 743.5,73.5 C 742.414,78.2618 739.747,81.9284 735.5,84.5C 735.5,83.1667 735.5,81.8333 735.5,80.5C 738.694,80.8244 739.694,79.6578 738.5,77C 740.907,76.7428 742.573,75.5762 743.5,73.5 Z" />
    </g>
    <g>
        <path style="" fill="#212121"
            d="M 477.5,92.5 C 471.839,91.0053 467.172,88.0053 463.5,83.5C 464.583,83.5394 465.583,83.8728 466.5,84.5C 467.711,83.7261 467.711,82.8928 466.5,82C 467.167,81.3333 467.833,81.3333 468.5,82C 469.659,83.8267 470.992,85.4933 472.5,87C 471.833,87.3333 471.167,87.6667 470.5,88C 473.156,89.1609 475.489,90.6609 477.5,92.5 Z" />
    </g>
    <g>
        <path style="" fill="#212121"
            d="M 250.5,80.5 C 253.035,82.8465 253.702,85.5132 252.5,88.5C 251.25,85.994 250.584,83.3274 250.5,80.5 Z" />
    </g>
    <g>
        <path style="" fill="#212121"
            d="M 526.5,81.5 C 524.761,84.2427 522.427,86.2427 519.5,87.5C 519.5,87.1667 519.5,86.8333 519.5,86.5C 520.404,85.791 520.737,84.791 520.5,83.5C 521.5,83.5 522.5,83.5 523.5,83.5C 523.504,79.7498 524.504,79.0831 526.5,81.5 Z" />
    </g>
    <g>
        <path style="" fill="#212121"
            d="M 71.5,79.5 C 70.9084,82.1272 70.5751,84.7938 70.5,87.5C 69.3054,87.1344 68.6387,86.301 68.5,85C 69.1402,82.8796 70.1402,81.0463 71.5,79.5 Z" />
    </g>
    <g>
        <path style="" fill="#212121"
            d="M 76.5,71.5 C 77.1667,71.5 77.8333,71.5 78.5,71.5C 78.067,74.1656 77.567,76.8323 77,79.5C 76.6667,79.1667 76.3333,78.8333 76,78.5C 74.9204,81.6145 74.7537,84.6145 75.5,87.5C 76.8333,87.5 78.1667,87.5 79.5,87.5C 79.5,88.5 79.5,89.5 79.5,90.5C 81.5996,90.4772 83.4329,91.1439 85,92.5C 86.7261,90.9022 87.5594,91.2355 87.5,93.5C 86.0813,94.4511 84.4147,94.7845 82.5,94.5C 82.0269,93.0937 81.0269,92.427 79.5,92.5C 77.847,92.3404 76.5137,91.6737 75.5,90.5C 75.0269,89.0937 74.0269,88.427 72.5,88.5C 71.5084,88.6716 70.8417,88.3382 70.5,87.5C 70.5751,84.7938 70.9084,82.1272 71.5,79.5C 74.182,77.4697 75.8486,74.803 76.5,71.5 Z" />
    </g>
    <g>
        <path style="" fill="#212121"
            d="M 157.5,71.5 C 155.48,77.5296 153.48,83.5296 151.5,89.5C 150.842,88.6016 150.176,87.6016 149.5,86.5C 148.583,87.1272 147.583,87.4606 146.5,87.5C 146.904,86.2436 147.571,85.0769 148.5,84C 148.011,82.8615 147.678,81.6948 147.5,80.5C 148.885,81.5736 150.051,82.9069 151,84.5C 153.213,80.0748 155.379,75.7415 157.5,71.5 Z" />
    </g>
    <g>
        <path style="" fill="#212121"
            d="M 177.5,71.5 C 176.964,75.3139 175.964,78.9806 174.5,82.5C 172.32,85.381 171.32,88.7144 171.5,92.5C 171.737,93.791 171.404,94.791 170.5,95.5C 170.167,95.5 169.833,95.5 169.5,95.5C 170.413,89.8678 171.246,84.2012 172,78.5C 173.871,77.0027 174.871,75.0027 175,72.5C 175.671,71.7476 176.504,71.4142 177.5,71.5 Z" />
    </g>
    <g>
        <path style="" fill="#212121"
            d="M 208.5,80.5 C 207.241,84.0246 205.241,87.0246 202.5,89.5C 202.682,86.9057 203.682,84.739 205.5,83C 204.549,82.2825 204.383,81.4491 205,80.5C 206.145,81.6843 207.312,81.6843 208.5,80.5 Z" />
    </g>
    <g>
        <path style="" fill="#212121"
            d="M 123.5,84.5 C 126.083,85.985 127.416,88.3183 127.5,91.5C 125.917,89.3374 124.584,87.0041 123.5,84.5 Z" />
    </g>
    <g>
        <path style="" fill="#212121"
            d="M 174.5,82.5 C 173.87,86.0477 172.87,89.3811 171.5,92.5C 171.32,88.7144 172.32,85.381 174.5,82.5 Z" />
    </g>
    <g>
        <path style="" fill="#212121"
            d="M 424.5,83.5 C 426.749,84.0798 428.415,85.4131 429.5,87.5C 427.251,86.9202 425.585,85.5869 424.5,83.5 Z" />
    </g>
    <g>
        <path style="" fill="#212121"
            d="M 114.5,81.5 C 114.5,81.8333 114.5,82.1667 114.5,82.5C 107.476,82.6082 100.476,83.1082 93.5,84C 92.3913,85.8761 91.3913,87.7095 90.5,89.5C 90.317,87.0637 90.9837,84.897 92.5,83C 99.7859,81.8143 107.119,81.3143 114.5,81.5 Z" />
    </g>
    <g>
        <path style="" fill="#212121"
            d="M 443.5,63.5 C 443.607,74.0339 442.94,84.3672 441.5,94.5C 441.553,83.9759 442.22,73.6426 443.5,63.5 Z" />
    </g>
    <g>
        <path style="" fill="#212121"
            d="M 754.5,83.5 C 755.49,87.3855 756.49,91.3855 757.5,95.5C 756.12,95.0377 755.453,94.0377 755.5,92.5C 754.698,89.5514 754.364,86.5514 754.5,83.5 Z" />
    </g>
    <g>
        <path style="" fill="#212121"
            d="M 374.5,69.5 C 374.5,77.5 374.5,85.5 374.5,93.5C 373.694,92.0028 373.028,90.3361 372.5,88.5C 373.131,82.0364 373.797,75.7031 374.5,69.5 Z" />
    </g>
    <g>
        <path style="" fill="#212121"
            d="M 519.5,87.5 C 519.027,88.9063 518.027,89.573 516.5,89.5C 516.973,88.0937 517.973,87.427 519.5,87.5 Z" />
    </g>
    <g>
        <path style="" fill="#212121"
            d="M 781.5,88.5 C 780.22,89.9313 778.553,90.5979 776.5,90.5C 777.78,89.0687 779.447,88.4021 781.5,88.5 Z" />
    </g>
    <g>
        <path style="" fill="#212121"
            d="M 72.5,88.5 C 74.0269,88.427 75.0269,89.0937 75.5,90.5C 73.9731,90.573 72.9731,89.9063 72.5,88.5 Z" />
    </g>
    <g>
        <path style="" fill="#212121"
            d="M 195.5,87.5 C 196.906,87.9731 197.573,88.9731 197.5,90.5C 196.094,90.0269 195.427,89.0269 195.5,87.5 Z" />
    </g>
    <g>
        <path style="" fill="#212121"
            d="M 252.5,88.5 C 251.22,89.9313 249.553,90.5979 247.5,90.5C 248.78,89.0687 250.447,88.4021 252.5,88.5 Z" />
    </g>
    <g>
        <path style="" fill="#212121"
            d="M 617.5,79.5 C 619.097,80.0905 620.431,81.0905 621.5,82.5C 623.191,80.7438 625.191,80.2438 627.5,81C 621.022,82.9603 621.022,84.7937 627.5,86.5C 628.167,85.5 628.833,84.5 629.5,83.5C 630.167,84.8333 630.833,86.1667 631.5,87.5C 634.709,88.2149 637.709,89.3815 640.5,91C 643.379,91.9574 645.879,91.4574 648,89.5C 652.001,91.306 656.001,91.9726 660,91.5C 662.966,89.9663 666.133,88.7996 669.5,88C 671.387,87.2204 673.054,87.3871 674.5,88.5C 673.71,89.4013 672.71,90.0679 671.5,90.5C 668.458,90.7329 665.792,91.7329 663.5,93.5C 649.788,97.4709 636.788,95.6376 624.5,88C 621.553,85.5644 619.22,82.7311 617.5,79.5 Z" />
    </g>
    <g>
        <path style="" fill="#212121"
            d="M 47.5,89.5 C 42.6311,92.2127 37.2978,93.546 31.5,93.5C 33.9243,92.0169 36.591,90.8502 39.5,90C 42.146,89.5026 44.8127,89.3359 47.5,89.5 Z" />
    </g>
    <g>
        <path style="" fill="#212121"
            d="M 90.5,89.5 C 90.3404,91.153 89.6737,92.4863 88.5,93.5C 88.2291,91.6203 88.8958,90.287 90.5,89.5 Z" />
    </g>
    <g>
        <path style="" fill="#212121"
            d="M 140.5,90.5 C 140.027,91.9063 139.027,92.573 137.5,92.5C 137.973,91.0937 138.973,90.427 140.5,90.5 Z" />
    </g>
    <g>
        <path style="" fill="#212121"
            d="M 247.5,90.5 C 245.819,92.0075 243.819,93.0075 241.5,93.5C 242.911,91.461 244.911,90.461 247.5,90.5 Z" />
    </g>
    <g>
        <path style="" fill="#212121"
            d="M 297.5,91.5 C 294.411,92.7846 291.078,93.4512 287.5,93.5C 287.918,92.7784 288.584,92.2784 289.5,92C 292.146,91.5026 294.813,91.3359 297.5,91.5 Z" />
    </g>
    <g>
        <path style="" fill="#212121"
            d="M 395.5,61.5 C 393.523,72.1158 392.856,83.1158 393.5,94.5C 387.642,94.8222 381.975,94.4889 376.5,93.5C 381.833,93.5 387.167,93.5 392.5,93.5C 392.5,82.5 392.5,71.5 392.5,60.5C 393.791,60.2627 394.791,60.596 395.5,61.5 Z" />
    </g>
    <g>
        <path style="" fill="#212121"
            d="M 671.5,90.5 C 669.208,92.2671 666.542,93.2671 663.5,93.5C 665.792,91.7329 668.458,90.7329 671.5,90.5 Z" />
    </g>
    <g>
        <path style="" fill="#212121"
            d="M 11.5,24.5 C 11.9817,25.4163 12.315,26.4163 12.5,27.5C 11.2165,47.8065 10.7165,68.1399 11,88.5C 12.4866,89.1552 13.6533,90.1552 14.5,91.5C 24.2556,92.9331 33.2556,91.5998 41.5,87.5C 43.6614,81.5216 45.9948,81.1883 48.5,86.5C 47.8902,87.391 47.5569,88.391 47.5,89.5C 44.8127,89.3359 42.146,89.5026 39.5,90C 36.591,90.8502 33.9243,92.0169 31.5,93.5C 26.393,94.2472 21.2264,94.9139 16,95.5C 13.2062,95.3958 10.8729,94.3958 9,92.5C 8.33333,71.8333 8.33333,51.1667 9,30.5C 9.00225,27.9488 9.83559,25.9488 11.5,24.5 Z" />
    </g>
    <g>
        <path style="" fill="#212121"
            d="M 159.5,92.5 C 163.007,92.9205 166.341,93.9205 169.5,95.5C 169.833,95.5 170.167,95.5 170.5,95.5C 166.479,96.3907 162.812,95.3907 159.5,92.5 Z" />
    </g>
    <g>
        <path style="" fill="#212121"
            d="M 265.5,79.5 C 265.5,84.1667 265.5,88.8333 265.5,93.5C 267.167,93.5 268.833,93.5 270.5,93.5C 275.5,93.5 280.5,93.5 285.5,93.5C 279.099,94.1838 272.599,94.8505 266,95.5C 265.617,94.944 265.117,94.6107 264.5,94.5C 264.179,89.3054 264.513,84.3054 265.5,79.5 Z" />
    </g>
    <g>
        <path style="" fill="#212121"
            d="M 580.5,91.5 C 577.781,92.913 574.781,93.5797 571.5,93.5C 571.5,93.1667 571.5,92.8333 571.5,92.5C 574.482,92.0371 577.482,91.7038 580.5,91.5 Z" />
    </g>
    <g>
        <path style="" fill="#212121"
            d="M 771.5,92.5 C 769.698,93.4582 767.698,94.1249 765.5,94.5C 765.5,94.1667 765.5,93.8333 765.5,93.5C 767.265,92.5386 769.265,92.2053 771.5,92.5 Z" />
    </g>
    <g>
        <path style="" fill="#212121"
            d="M 79.5,92.5 C 81.0269,92.427 82.0269,93.0937 82.5,94.5C 80.9731,94.573 79.9731,93.9063 79.5,92.5 Z" />
    </g>
    <g>
        <path style="" fill="#212121"
            d="M 477.5,92.5 C 480.152,92.4095 482.485,93.0762 484.5,94.5C 481.848,94.5905 479.515,93.9238 477.5,92.5 Z" />
    </g>
    <g>
        <path style="" fill="#212121"
            d="M 719.5,92.5 C 717.162,94.0395 714.495,94.7062 711.5,94.5C 713.905,93.2318 716.572,92.5651 719.5,92.5 Z" />
    </g>
    <g>
        <path style="" fill="#212121"
            d="M 87.5,93.5 C 87.8333,93.5 88.1667,93.5 88.5,93.5C 87.1742,97.1565 85.1742,97.4899 82.5,94.5C 84.4147,94.7845 86.0813,94.4511 87.5,93.5 Z" />
    </g>
    <g>
        <path style="" fill="#212121"
            d="M 127.5,91.5 C 128.857,92.6854 130.357,93.6854 132,94.5C 133.8,93.6805 135.634,93.0138 137.5,92.5C 133.36,97.9582 130.026,97.6248 127.5,91.5 Z" />
    </g>
    <g>
        <path style="" fill="#212121"
            d="M 231.5,91.5 C 233.048,91.8212 233.715,92.8212 233.5,94.5C 235.5,94.5 237.5,94.5 239.5,94.5C 235.259,97.8631 232.592,96.8631 231.5,91.5 Z" />
    </g>
    <g>
        <path style="" fill="#212121"
            d="M 703.5,94.5 C 706.167,94.5 708.833,94.5 711.5,94.5C 709.782,95.224 707.948,95.8906 706,96.5C 705.005,95.9341 704.172,95.2674 703.5,94.5 Z" />
    </g>
</svg>